{"accessors" : [{"bufferView" : 0, "byteOffset" : 0, "componentType" : 5123, "count" : 35298, "type" : "SCALAR", "max" : [35297], "min" : [0]}, {"bufferView" : 1, "byteOffset" : 0, "componentType" : 5126, "count" : 35298, "type" : "VEC3", "max" : [0.6136422753334045, 0.6573015451431274, 1.9700764417648315], "min" : [-0.6136422753334045, -0.35867172479629517, 0.008139997720718384], "name" : "POSITION"}, {"bufferView" : 1, "byteOffset" : 12, "componentType" : 5126, "count" : 35298, "type" : "VEC3", "max" : [1.0000044107437134, 1.0000044107437134, 1.0000044107437134], "min" : [-1.0000044107437134, -1.0000044107437134, -1.0000044107437134], "name" : "NORMAL"}, {"bufferView" : 1, "byteOffset" : 24, "componentType" : 5126, "count" : 35298, "type" : "VEC2", "max" : [1, -0], "min" : [0, -1.000000238418579], "name" : "TEXCOORD_0"}, {"bufferView" : 0, "byteOffset" : 70596, "componentType" : 5123, "count" : 13344, "type" : "SCALAR", "max" : [13343], "min" : [0]}, {"bufferView" : 2, "byteOffset" : 0, "componentType" : 5126, "count" : 13344, "type" : "VEC3", "max" : [0.35615074634552, 0.3445501923561096, 1.8944828510284424], "min" : [-0.34707117080688477, -0.35867172479629517, 0.6354330778121948], "name" : "POSITION"}, {"bufferView" : 2, "byteOffset" : 12, "componentType" : 5126, "count" : 13344, "type" : "VEC3", "max" : [0.999874472618103, 0.9999188780784607, 0.9988327026367188], "min" : [-0.999874472618103, -0.999874472618103, -0.9985002279281616], "name" : "NORMAL"}, {"bufferView" : 2, "byteOffset" : 24, "componentType" : 5126, "count" : 13344, "type" : "VEC2", "max" : [0.6779363751411438, -0], "min" : [0.3220638036727905, -1.0000001192092896], "name" : "TEXCOORD_0"}, {"bufferView" : 0, "byteOffset" : 97284, "componentType" : 5123, "count" : 384, "type" : "SCALAR", "max" : [383], "min" : [0]}, {"bufferView" : 3, "byteOffset" : 0, "componentType" : 5126, "count" : 384, "type" : "VEC3", "max" : [0.29040566086769104, 0.5719674229621887, 1.413808822631836], "min" : [0.17618423700332642, 0.4577459990978241, 1.1310373544692993], "name" : "POSITION"}, {"bufferView" : 3, "byteOffset" : 12, "componentType" : 5126, "count" : 384, "type" : "VEC3", "max" : [0.9951894879341125, 0.9951894283294678, 4.805617663805606E-07], "min" : [-0.9951891899108887, -0.9951890110969543, -4.805675644092844E-07], "name" : "NORMAL"}, {"bufferView" : 3, "byteOffset" : 24, "componentType" : 5126, "count" : 384, "type" : "VEC2", "max" : [1, -0.1723688244819641], "min" : [0, -1], "name" : "TEXCOORD_0"}, {"bufferView" : 0, "byteOffset" : 98052, "componentType" : 5123, "count" : 5376, "type" : "SCALAR", "max" : [5375], "min" : [0]}, {"bufferView" : 4, "byteOffset" : 0, "componentType" : 5126, "count" : 5376, "type" : "VEC3", "max" : [0.43112844228744507, 0.42634117603302, 1.8536224365234375], "min" : [-0.4220488369464874, -0.2707783281803131, 1.543479084968567], "name" : "POSITION"}, {"bufferView" : 4, "byteOffset" : 12, "componentType" : 5126, "count" : 5376, "type" : "VEC3", "max" : [0.9998440146446228, 1.0000044107437134, 0.7069963216781616], "min" : [-0.9998440742492676, -0.9999423027038574, -0.7071571350097656], "name" : "NORMAL"}, {"bufferView" : 4, "byteOffset" : 24, "componentType" : 5126, "count" : 5376, "type" : "VEC2", "max" : [0.8750002384185791, -0], "min" : [0.5, -1.000000238418579], "name" : "TEXCOORD_0"}, {"bufferView" : 0, "byteOffset" : 108804, "componentType" : 5123, "count" : 19188, "type" : "SCALAR", "max" : [19187], "min" : [0]}, {"bufferView" : 5, "byteOffset" : 0, "componentType" : 5126, "count" : 19188, "type" : "VEC3", "max" : [0.5951031446456909, 0.5599174499511719, 1.7189041376113892], "min" : [-0.5951031446456909, -0.34324535727500916, 0.23984010517597198], "name" : "POSITION"}, {"bufferView" : 5, "byteOffset" : 12, "componentType" : 5126, "count" : 19188, "type" : "VEC3", "max" : [1.0000044107437134, 1.0000044107437134, 1.0000044107437134], "min" : [-1.0000044107437134, -1.0000044107437134, -0.9999462962150574], "name" : "NORMAL"}, {"bufferView" : 5, "byteOffset" : 24, "componentType" : 5126, "count" : 19188, "type" : "VEC2", "max" : [1, -0], "min" : [0, -1.000000238418579], "name" : "TEXCOORD_0"}, {"bufferView" : 0, "byteOffset" : 147180, "componentType" : 5123, "count" : 1320, "type" : "SCALAR", "max" : [1319], "min" : [0]}, {"bufferView" : 6, "byteOffset" : 0, "componentType" : 5126, "count" : 1320, "type" : "VEC3", "max" : [0.515630841255188, 0.15312783420085907, 1.710329294204712], "min" : [-0.5065512657165527, -0.15834760665893555, 1.3988536596298218], "name" : "POSITION"}, {"bufferView" : 6, "byteOffset" : 12, "componentType" : 5126, "count" : 1320, "type" : "VEC3", "max" : [0.9946244359016418, 0.9952025413513184, 0.9952029585838318], "min" : [-0.9946244955062866, -0.9952024817466736, -0.9952023029327393], "name" : "NORMAL"}, {"bufferView" : 6, "byteOffset" : 24, "componentType" : 5126, "count" : 1320, "type" : "VEC2", "max" : [0.9991846680641174, -0.159022256731987], "min" : [0.000815409526694566, -1], "name" : "TEXCOORD_0"}, {"bufferView" : 0, "byteOffset" : 149820, "componentType" : 5123, "count" : 1536, "type" : "SCALAR", "max" : [1535], "min" : [0]}, {"bufferView" : 7, "byteOffset" : 0, "componentType" : 5126, "count" : 1536, "type" : "VEC3", "max" : [0.3123742938041687, -0.18844299018383026, 1.8513225317001343], "min" : [-0.30329471826553345, -0.41608431935310364, 1.2356535196304321], "name" : "POSITION"}, {"bufferView" : 7, "byteOffset" : 12, "componentType" : 5126, "count" : 1536, "type" : "VEC3", "max" : [0.966178834438324, 1.0000044107437134, 0.9661786556243896], "min" : [-0.9661787748336792, -1.0000044107437134, -0.9661787748336792], "name" : "NORMAL"}, {"bufferView" : 7, "byteOffset" : 24, "componentType" : 5126, "count" : 1536, "type" : "VEC2", "max" : [0.6666668057441711, -0.45833340287208557], "min" : [0.3333333730697632, -0.7916668057441711], "name" : "TEXCOORD_0"}, {"bufferView" : 0, "byteOffset" : 152892, "componentType" : 5123, "count" : 8832, "type" : "SCALAR", "max" : [8831], "min" : [0]}, {"bufferView" : 8, "byteOffset" : 0, "componentType" : 5126, "count" : 8832, "type" : "VEC3", "max" : [0.36050185561180115, 0.6569353342056274, 1.2800215482711792], "min" : [-0.3514222204685211, 0.25733083486557007, 0.5279070138931274], "name" : "POSITION"}, {"bufferView" : 8, "byteOffset" : 12, "componentType" : 5126, "count" : 8832, "type" : "VEC3", "max" : [1.0000044107437134, 1.0000044107437134, 1.0000044107437134], "min" : [-1.0000044107437134, -1.0000044107437134, -1.0000044107437134], "name" : "NORMAL"}, {"bufferView" : 8, "byteOffset" : 24, "componentType" : 5126, "count" : 8832, "type" : "VEC2", "max" : [0.8750001192092896, -0], "min" : [0.01000000536441803, -1.0000001192092896], "name" : "TEXCOORD_0"}, {"bufferView" : 0, "byteOffset" : 170556, "componentType" : 5123, "count" : 1536, "type" : "SCALAR", "max" : [1535], "min" : [0]}, {"bufferView" : 9, "byteOffset" : 0, "componentType" : 5126, "count" : 1536, "type" : "VEC3", "max" : [0.36050185561180115, 0.5235688090324402, 1.2398310899734497], "min" : [-0.3514222204685211, 0.43482276797294617, 0.5279070138931274], "name" : "POSITION"}, {"bufferView" : 9, "byteOffset" : 12, "componentType" : 5126, "count" : 1536, "type" : "VEC3", "max" : [1.0000044107437134, 0.010553604923188686, 1.0000044107437134], "min" : [-1.0000044107437134, -1.834496288211085E-06, -1.0000044107437134], "name" : "NORMAL"}, {"bufferView" : 9, "byteOffset" : 24, "componentType" : 5126, "count" : 1536, "type" : "VEC2", "max" : [0.8125001192092896, -0.3124999701976776], "min" : [0.1875, -0.9375001192092896], "name" : "TEXCOORD_0"}, {"bufferView" : 0, "byteOffset" : 173628, "componentType" : 5123, "count" : 354, "type" : "SCALAR", "max" : [353], "min" : [0]}, {"bufferView" : 10, "byteOffset" : 0, "componentType" : 5126, "count" : 354, "type" : "VEC3", "max" : [0.29040566086769104, 0.5719674229621887, 1.413808822631836], "min" : [0.17618423700332642, 0.4577459990978241, 1.1310373544692993], "name" : "POSITION"}, {"bufferView" : 10, "byteOffset" : 12, "componentType" : 5126, "count" : 354, "type" : "VEC3", "max" : [1.3114522516843863E-06, 0, 1.0000044107437134], "min" : [0, 0, -1.0000044107437134], "name" : "NORMAL"}, {"bufferView" : 10, "byteOffset" : 24, "componentType" : 5126, "count" : 354, "type" : "VEC2", "max" : [0.9900000095367432, -0.01000000536441803], "min" : [0.17236879467964172, -0.49000000953674316], "name" : "TEXCOORD_0"}, {"bufferView" : 0, "byteOffset" : 174336, "componentType" : 5123, "count" : 240, "type" : "SCALAR", "max" : [239], "min" : [0]}, {"bufferView" : 11, "byteOffset" : 0, "componentType" : 5126, "count" : 240, "type" : "VEC3", "max" : [0.27634772658348083, 0.5558025240898132, 1.4568614959716797], "min" : [0.19024212658405304, 0.4739111065864563, 1.370755910873413], "name" : "POSITION"}, {"bufferView" : 11, "byteOffset" : 12, "componentType" : 5126, "count" : 240, "type" : "VEC3", "max" : [0.9435256123542786, 0.9920814633369446, 0.9435304403305054], "min" : [-0.9435257911682129, -0.9920816421508789, -0.943529486656189], "name" : "NORMAL"}, {"bufferView" : 11, "byteOffset" : 24, "componentType" : 5126, "count" : 240, "type" : "VEC2", "max" : [1, -0], "min" : [0, -0.4723820090293884], "name" : "TEXCOORD_0"}], "asset" : {"generator" : "Aspose.3D 23.6.0", "version" : "2.0"}, "buffers" : [{"uri" : "data:application/octet-stream;base64,", "byteLength" : 2971920}], "bufferViews" : [{"buffer" : 0, "byteOffset" : 0, "byteLength" : 174816, "target" : 34963}, {"buffer" : 0, "byteOffset" : 174820, "byteLength" : 1129536, "byteStride" : 32, "target" : 34962}, {"buffer" : 0, "byteOffset" : 1304360, "byteLength" : 427008, "byteStride" : 32, "target" : 34962}, {"buffer" : 0, "byteOffset" : 1731372, "byteLength" : 12288, "byteStride" : 32, "target" : 34962}, {"buffer" : 0, "byteOffset" : 1743664, "byteLength" : 172032, "byteStride" : 32, "target" : 34962}, {"buffer" : 0, "byteOffset" : 1915700, "byteLength" : 614016, "byteStride" : 32, "target" : 34962}, {"buffer" : 0, "byteOffset" : 2529720, "byteLength" : 42240, "byteStride" : 32, "target" : 34962}, {"buffer" : 0, "byteOffset" : 2571964, "byteLength" : 49152, "byteStride" : 32, "target" : 34962}, {"buffer" : 0, "byteOffset" : 2621120, "byteLength" : 282624, "byteStride" : 32, "target" : 34962}, {"buffer" : 0, "byteOffset" : 2903748, "byteLength" : 49152, "byteStride" : 32, "target" : 34962}, {"buffer" : 0, "byteOffset" : 2952904, "byteLength" : 11328, "byteStride" : 32, "target" : 34962}, {"buffer" : 0, "byteOffset" : 2964236, "byteLength" : 7680, "byteStride" : 32, "target" : 34962}], "materials" : [{"name" : "SUIT.001", "pbrMetallicRoughness" : {"baseColorFactor" : [0.5009967684745789, 0.6072410345077515, 1, 1], "metallicFactor" : 0, "roughnessFactor" : 0}, "emissiveFactor" : [0, 0, 0], "alphaMode" : "OPAQUE", "doubleSided" : false}, {"name" : "Material.005", "pbrMetallicRoughness" : {"baseColorFactor" : [0, 0.10270489752292633, 1, 1], "metallicFactor" : 0, "roughnessFactor" : 0}, "emissiveFactor" : [0, 0, 0], "alphaMode" : "OPAQUE", "doubleSided" : false}, {"name" : "Material.008", "pbrMetallicRoughness" : {"baseColorFactor" : [0, 0.030725223943591118, 1, 1], "metallicFactor" : 0, "roughnessFactor" : 0}, "emissiveFactor" : [0, 0, 0], "alphaMode" : "OPAQUE", "doubleSided" : false}, {"name" : "Material.003", "pbrMetallicRoughness" : {"baseColorFactor" : [0, 0.029287487268447876, 1, 1], "metallicFactor" : 0, "roughnessFactor" : 0}, "emissiveFactor" : [0, 0, 0], "alphaMode" : "OPAQUE", "doubleSided" : false}, {"name" : "SCREWS.001", "pbrMetallicRoughness" : {"baseColorFactor" : [0, 0.15174727141857147, 1, 1], "metallicFactor" : 0, "roughnessFactor" : 0}, "emissiveFactor" : [0, 0, 0], "alphaMode" : "OPAQUE", "doubleSided" : false}, {"name" : "Material.011", "pbrMetallicRoughness" : {"baseColorFactor" : [1, 1, 1, 1], "metallicFactor" : 0, "roughnessFactor" : 0}, "emissiveFactor" : [0, 0, 0], "alphaMode" : "OPAQUE", "doubleSided" : false}, {"name" : "FACE SCREEN.001", "pbrMetallicRoughness" : {"baseColorFactor" : [0, 0.4748658835887909, 1, 1], "metallicFactor" : 0, "roughnessFactor" : 0}, "emissiveFactor" : [0, 0, 0], "alphaMode" : "OPAQUE", "doubleSided" : false}, {"name" : "BAG PACK.001", "pbrMetallicRoughness" : {"baseColorFactor" : [0.0010613687336444855, 0, 1, 1], "metallicFactor" : 0, "roughnessFactor" : 0}, "emissiveFactor" : [0, 0, 0], "alphaMode" : "OPAQUE", "doubleSided" : false}, {"name" : "Material.012", "pbrMetallicRoughness" : {"baseColorFactor" : [1, 0.8245101571083069, 0.7987842559814453, 1], "metallicFactor" : 0, "roughnessFactor" : 0}, "emissiveFactor" : [0, 0, 0], "alphaMode" : "OPAQUE", "doubleSided" : false}, {"name" : "Material.013", "pbrMetallicRoughness" : {"baseColorFactor" : [0.800000011920929, 0.800000011920929, 0.800000011920929, 1], "metallicFactor" : 0, "roughnessFactor" : 0}, "emissiveFactor" : [0, 0, 0], "alphaMode" : "OPAQUE", "doubleSided" : false}, {"name" : "sphere.001", "pbrMetallicRoughness" : {"baseColorFactor" : [0.4335455596446991, 0.39512836933135986, 0.44798824191093445, 1], "metallicFactor" : 0, "roughnessFactor" : 0}, "emissiveFactor" : [0, 0, 0], "alphaMode" : "OPAQUE", "doubleSided" : false}], "meshes" : [{"primitives" : [{"attributes" : {"POSITION" : 1, "NORMAL" : 2, "TEXCOORD_0" : 3}, "indices" : 0, "material" : 0, "mode" : 4}, {"attributes" : {"POSITION" : 5, "NORMAL" : 6, "TEXCOORD_0" : 7}, "indices" : 4, "material" : 1, "mode" : 4}, {"attributes" : {"POSITION" : 9, "NORMAL" : 10, "TEXCOORD_0" : 11}, "indices" : 8, "material" : 2, "mode" : 4}, {"attributes" : {"POSITION" : 13, "NORMAL" : 14, "TEXCOORD_0" : 15}, "indices" : 12, "material" : 3, "mode" : 4}, {"attributes" : {"POSITION" : 17, "NORMAL" : 18, "TEXCOORD_0" : 19}, "indices" : 16, "material" : 4, "mode" : 4}, {"attributes" : {"POSITION" : 21, "NORMAL" : 22, "TEXCOORD_0" : 23}, "indices" : 20, "material" : 5, "mode" : 4}, {"attributes" : {"POSITION" : 25, "NORMAL" : 26, "TEXCOORD_0" : 27}, "indices" : 24, "material" : 6, "mode" : 4}, {"attributes" : {"POSITION" : 29, "NORMAL" : 30, "TEXCOORD_0" : 31}, "indices" : 28, "material" : 7, "mode" : 4}, {"attributes" : {"POSITION" : 33, "NORMAL" : 34, "TEXCOORD_0" : 35}, "indices" : 32, "material" : 8, "mode" : 4}, {"attributes" : {"POSITION" : 37, "NORMAL" : 38, "TEXCOORD_0" : 39}, "indices" : 36, "material" : 9, "mode" : 4}, {"attributes" : {"POSITION" : 41, "NORMAL" : 42, "TEXCOORD_0" : 43}, "indices" : 40, "material" : 10, "mode" : 4}], "name" : "Cube.033"}], "nodes" : [{"matrix" : [100, 0, 0, 0, 0, -1.6292067955264296E-05, -99.99999999999866, 0, 0, 99.99999999999866, -1.6292067955264296E-05, 0, 0, 0, 0, 1], "mesh" : 0, "name" : "body.001"}], "scene" : 0, "scenes" : [{"nodes" : [0]}]}