<svg width="107" height="107" viewBox="0 0 107 107" fill="none" xmlns="http://www.w3.org/2000/svg">
<path d="M57.6197 73.4723C65.867 73.4723 72.5528 66.786 72.5528 58.5382C72.5528 50.2903 65.867 43.604 57.6197 43.604C49.3723 43.604 42.6865 50.2903 42.6865 58.5382C42.6865 66.786 49.3723 73.4723 57.6197 73.4723Z" fill="#A0616A"/>
<path d="M52.8901 46.592C52.8901 46.592 59.8589 48.4588 63.4678 49.2055C67.0766 49.9522 66.7033 47.8365 66.7033 47.8365C66.7033 47.8365 71.4321 48.4588 71.1832 47.961C70.9343 47.4632 73.1743 44.8497 70.561 41.8629C67.9477 38.876 68.6944 36.6359 68.6944 36.6359H66.4544L65.8322 35.7648H62.3478C62.3478 35.7648 58.4955 32.3865 51.6511 33.3821C44.8067 34.3777 36.7125 37.0093 35.9658 41.1162C35.8645 41.6732 35.7312 42.2921 35.5764 42.9458C33.7048 50.8477 37.6815 58.2411 41.8059 65.236C42.8196 66.9551 47.7226 70.7037 47.5972 68.1318C47.4717 65.5599 43.1835 59.7839 46.1702 59.4105C49.1568 59.0371 54.259 51.4456 52.8901 46.592Z" fill="#2F2E41"/>
<path d="M49.1491 106.818C46.2663 106.587 43.4076 106.117 40.6025 105.413L40.7598 102.435L42.0673 78.7554L42.0791 78.5737H68.3844L72.5125 100.377L73.0693 103.319C71.9799 103.743 70.8782 104.142 69.7527 104.493C69.7403 104.493 69.7403 104.505 69.7285 104.505C68.1668 104.99 66.5809 105.413 64.9826 105.764C62.8576 106.223 60.7071 106.554 58.5427 106.757C56.8694 106.923 55.1887 107.004 53.5072 106.999C52.0543 106.999 50.5896 106.939 49.1491 106.818Z" fill="#6C63FF"/>
<path d="M32.2359 102.605C31.1465 102.133 30.0932 101.625 29.0523 101.092L28.6043 100.862C28.3016 100.704 27.9871 100.535 27.6845 100.365C27.2725 100.135 26.873 99.9055 26.4858 99.6754C26.1105 99.4574 25.7233 99.2275 25.3479 98.9975C25.3237 98.9853 25.3119 98.9732 25.2877 98.9732C23.9802 98.1379 22.6969 97.2783 21.4622 96.3462C21.2565 96.1888 21.0506 96.0314 20.8445 95.8741L20.627 92.3874L20.9414 92.1937L42.0657 78.7557L42.356 78.5741L42.3802 78.562L45.3581 78.5741V89.6635C47.0409 92.0968 48.1788 97.1935 48.881 103.864C48.978 104.821 49.0625 105.801 49.1476 106.818C46.2648 106.587 43.4061 106.118 40.601 105.414C40.2984 105.353 40.0076 105.281 39.705 105.196C37.9408 104.734 36.2032 104.176 34.4998 103.525C33.9791 103.331 33.4707 103.126 32.9624 102.92L32.9139 102.896C32.6958 102.799 32.454 102.702 32.2359 102.605Z" fill="#2F2E41"/>
<path d="M79.266 100.402C78.9024 100.596 78.5395 100.789 78.1766 100.971C78.0915 101.019 78.0194 101.056 77.9466 101.092C77.462 101.334 76.9903 101.576 76.5062 101.806C76.4938 101.818 76.4695 101.818 76.4695 101.83C76.4453 101.843 76.4092 101.855 76.385 101.867C75.2956 102.387 74.1938 102.872 73.0678 103.319C71.9784 103.743 70.8767 104.143 69.7512 104.494C69.7388 104.494 69.7388 104.506 69.727 104.506C68.1653 104.99 66.5794 105.414 64.9811 105.765C64.9632 104.77 65.0939 103.779 65.3689 102.823L65.3807 102.654L66.4222 85.8016L65.0296 78.5742L69.0247 77.981L90.9961 89.8089C90.9961 89.8089 88.575 92.2301 78.6364 97.3874C77.7577 97.8434 79.0479 99.3608 79.266 100.402Z" fill="#2F2E41"/>
<path d="M58.2754 103.852C56.7013 103.997 55.1036 104.07 53.5059 104.07C51.9561 104.07 50.4187 104.01 48.8813 103.864C48.9782 104.821 49.0627 105.801 49.1479 106.818C50.5883 106.939 52.053 107 53.5059 107C55.1874 107.005 56.8681 106.924 58.5414 106.758C60.7059 106.555 62.8563 106.223 64.9813 105.765C64.9634 104.771 65.0941 103.779 65.3691 102.823L65.3809 102.654C63.0441 103.222 60.6695 103.623 58.2754 103.852ZM104.022 35.9116C101.464 28.563 97.3334 21.8608 91.9192 16.2724C86.505 10.6841 79.937 6.34402 72.6733 3.55495C65.4096 0.765879 57.625 -0.405095 49.8623 0.123683C42.0996 0.652461 34.5456 2.86826 27.7272 6.61658C20.9087 10.3649 14.9899 15.5555 10.3834 21.8265C5.77695 28.0974 2.59368 35.2978 1.05564 42.9254C-0.482413 50.5531 -0.338238 58.4245 1.4781 65.9907C3.29444 73.5569 6.73921 80.6358 11.5722 86.7339C12.0563 87.3392 12.5529 87.9445 13.0612 88.5256C13.1097 88.574 13.1339 88.6104 13.17 88.6466C14.4198 90.0881 15.7494 91.4583 17.1527 92.7507C17.492 93.0654 17.8426 93.3802 18.1937 93.6829C18.2303 93.7071 18.2545 93.7434 18.2906 93.7676C19.017 94.4213 19.7677 95.0388 20.5421 95.632C20.6514 95.7167 20.7483 95.7894 20.8447 95.8741C21.051 96.0315 21.2569 96.1889 21.4624 96.3463C22.6972 97.2784 23.9804 98.138 25.2879 98.9733C25.3121 98.9733 25.3239 98.9854 25.3482 98.9975C25.7235 99.2276 26.1106 99.4575 26.486 99.6755C26.8737 99.9055 27.2733 100.135 27.6847 100.365C27.9874 100.535 28.3018 100.704 28.6045 100.862L29.0525 101.092C30.0934 101.625 31.1467 102.133 32.2361 102.605C32.4542 102.702 32.696 102.799 32.9141 102.896L32.9626 102.92C33.4709 103.126 33.9792 103.332 34.5 103.525C36.2033 104.177 37.9409 104.734 39.7051 105.196C40.0077 105.281 40.2986 105.353 40.6012 105.414C43.4063 106.118 46.265 106.588 49.1479 106.818C50.5883 106.939 52.053 107 53.5059 107C55.1874 107.005 56.8681 106.924 58.5414 106.758C60.7059 106.555 62.8563 106.223 64.9813 105.765C66.5796 105.414 68.1654 104.99 69.7271 104.506C69.7389 104.506 69.739 104.494 69.7514 104.494C70.8768 104.143 71.9786 103.743 73.068 103.319C74.194 102.872 75.2958 102.387 76.3851 101.867C76.4094 101.855 76.4454 101.843 76.4697 101.83C76.4697 101.818 76.4939 101.818 76.5063 101.806C76.9904 101.576 77.4621 101.334 77.9468 101.092C78.0195 101.056 78.0916 101.019 78.1768 100.971C78.5397 100.789 78.9026 100.596 79.2661 100.402C79.2903 100.39 79.3022 100.378 79.3264 100.366C80.2828 99.8329 81.2273 99.276 82.1595 98.6828C82.4137 98.5254 82.6678 98.3681 82.922 98.1864C83.2974 97.9564 83.6603 97.7022 84.0114 97.4479C84.4836 97.121 84.9554 96.7821 85.4158 96.431C85.5688 96.3328 85.7144 96.2236 85.8514 96.1042C86.9775 95.2567 88.0668 94.3608 89.1077 93.4165C97.0024 86.3815 102.633 77.1629 105.288 66.9268C107.943 56.6907 107.502 45.8971 104.022 35.9116ZM88.1999 90.2931C86.8895 91.5261 85.5157 92.6899 84.0842 93.7798C83.7697 94.0218 83.4422 94.264 83.116 94.4819C82.8009 94.724 82.4865 94.954 82.1596 95.1719C81.8812 95.3657 81.6028 95.5593 81.312 95.741C81.2877 95.7651 81.2517 95.7772 81.2274 95.8015C81.0211 95.9467 80.8036 96.0799 80.5979 96.2131C79.956 96.6126 79.2905 97.0121 78.6367 97.3874C78.4795 97.4722 78.3341 97.5689 78.1768 97.6537C78.0917 97.7022 78.0072 97.7506 77.9103 97.799C77.5473 98.0048 77.1838 98.1864 76.8209 98.3801C76.7724 98.4164 76.7121 98.4285 76.6636 98.4649C76.6454 98.4677 76.6284 98.4762 76.6152 98.489C76.361 98.6223 76.1068 98.7433 75.8527 98.8643C75.6346 98.9733 75.4289 99.0822 75.2108 99.1791C74.3271 99.6029 73.4192 100.002 72.5113 100.378C71.5549 100.765 70.5866 101.116 69.606 101.443C69.3637 101.528 69.1095 101.625 68.8553 101.697C67.7051 102.06 66.5554 102.387 65.3809 102.654C63.0441 103.222 60.6695 103.623 58.2754 103.852C56.7013 103.997 55.1036 104.07 53.5059 104.07C51.9561 104.07 50.4187 104.01 48.8813 103.864C46.1389 103.613 43.422 103.136 40.7586 102.436C40.6616 102.411 40.5529 102.387 40.4559 102.363C38.2712 101.793 36.1308 101.065 34.0521 100.184C33.9433 100.136 33.8221 100.099 33.7252 100.051C33.604 100.002 33.4952 99.966 33.3983 99.9175C33.2771 99.8691 33.1684 99.8207 33.0596 99.7723C32.1517 99.3728 31.268 98.9369 30.3843 98.489L29.9723 98.2711C29.1856 97.8595 28.4107 97.4358 27.6482 96.9636C27.3822 96.8183 27.1038 96.6489 26.8372 96.4794C26.5346 96.2978 26.232 96.1041 25.9411 95.9104C25.869 95.862 25.7965 95.8136 25.7236 95.7651C25.0456 95.3051 24.3558 94.845 23.7021 94.3487C23.2422 94.0097 22.7942 93.6829 22.3461 93.3318C22.0553 93.1139 21.7651 92.8838 21.4867 92.6418C21.3052 92.5085 21.1238 92.3512 20.9417 92.1938C20.7 91.988 20.4576 91.7822 20.2158 91.5643C19.8405 91.2616 19.4894 90.9226 19.1501 90.6078C17.787 89.3516 16.4977 88.0177 15.2885 86.6127C14.8771 86.1527 14.4894 85.6927 14.1146 85.2085C14.0272 85.1131 13.9462 85.012 13.8723 84.9058C7.77784 77.2118 4.05427 67.9102 3.15582 58.1359C2.25738 48.3616 4.22292 38.5371 8.81263 29.8609C13.4023 21.1847 20.4178 14.0319 29.0032 9.27514C37.5885 4.5184 47.3726 2.36332 57.1618 3.07285C66.9511 3.78238 76.3222 7.32584 84.132 13.2709C91.9418 19.216 97.8526 27.3056 101.143 36.553C104.434 45.8004 104.963 55.8057 102.664 65.3484C100.366 74.891 95.34 83.5584 88.1999 90.2931Z" fill="#3F3D56"/>
</svg>
