<svg width="20" height="20" viewBox="0 0 20 20" fill="none" xmlns="http://www.w3.org/2000/svg">
<path d="M12.5 0C14.433 0 16 1.567 16 3.5C16 4.03721 15.879 4.54615 15.6627 5.00104L19 5C19.5523 5 20 5.44771 20 6V9.99997C20 10.5523 19.5523 11 19 11H18V19C18 19.5523 17.5523 20 17 20H3C2.44772 20 2 19.5523 2 19V11H1C0.44772 11 0 10.5523 0 9.99997V6C0 5.44771 0.44772 5 1 5L4.33731 5.00104C4.12103 4.54615 4 4.03721 4 3.5C4 1.567 5.56701 0 7.5 0C8.48002 0 9.36592 0.40276 10.0012 1.05178C10.6341 0.40276 11.52 0 12.5 0ZM16 11H4V18H16V11ZM18 7H2V8.99997H18V7ZM7.5 2C6.67158 2 6 2.67157 6 3.5C6 4.2797 6.59489 4.92045 7.35554 4.99313L7.5 5H9.00002V3.5C9.00002 2.7203 8.40512 2.07955 7.64446 2.00687L7.5 2ZM12.5 2L12.3555 2.00687C11.6424 2.07501 11.075 2.64243 11.0068 3.35554L11 3.5V5H12.5L12.6444 4.99313C13.4051 4.92045 14 4.2797 14 3.5C14 2.7203 13.4051 2.07955 12.6444 2.00687L12.5 2Z" fill="#5200FF"/>
</svg>
