<svg width="18" height="18" viewBox="0 0 18 18" fill="none" xmlns="http://www.w3.org/2000/svg">
<path d="M16.6501 9.35358L16.6277 9.39831C16.348 9.25851 16.0325 9.19397 15.7155 9.21149C14.7945 9.26277 14.0443 10.026 14.0083 10.9484C13.9888 11.4473 14.168 11.9193 14.5129 12.2779C14.8581 12.6368 15.322 12.8344 15.8197 12.8344C16.1052 12.8344 16.378 12.77 16.6308 12.6431C16.9378 12.489 17.2955 12.5042 17.5871 12.6841C17.8768 12.8628 18.0499 13.1733 18.0499 13.514V17.6413C18.0499 17.867 17.867 18.0499 17.6413 18.0499H13.514C13.1733 18.0499 12.8628 17.8768 12.6841 17.5872C12.5042 17.2955 12.4889 16.9378 12.6431 16.6309C12.77 16.378 12.8343 16.1053 12.8343 15.8198C12.8343 15.322 12.6368 14.8581 12.2779 14.513L12.3126 14.4769L12.2779 14.513C11.9193 14.168 11.4469 13.989 10.9485 14.0084C10.026 14.0443 9.26274 14.7945 9.21146 15.7155C9.19383 16.0325 9.25854 16.348 9.39828 16.6278C9.55283 16.9371 9.53732 17.2968 9.35646 17.5893C9.17815 17.8777 8.86851 18.05 8.52868 18.05H4.40161C4.176 18.05 3.99305 17.867 3.99305 17.6414V13.514C3.99305 13.4371 3.94743 13.3975 3.91845 13.3796C3.89438 13.3648 3.8327 13.3357 3.75769 13.3733C3.75768 13.3733 3.75768 13.3733 3.75767 13.3733L3.73526 13.3286L16.6501 9.35358ZM16.6501 9.35358L16.6278 9.39831C16.937 9.55282 17.2967 9.53735 17.5892 9.35649C17.8776 9.17821 18.0499 8.8685 18.0499 8.52871V4.40161C18.0499 4.17599 17.867 3.99304 17.6413 3.99304H13.5142C13.4379 3.99304 13.3989 3.94809 13.3814 3.91981L13.3814 3.91976C13.3664 3.89546 13.3363 3.83173 13.3755 3.75323L16.6501 9.35358ZM8.71427 3.73525L8.66958 3.75769C8.48499 3.39004 8.39144 2.9937 8.39144 2.58003C8.39144 1.8582 8.67816 1.18471 9.19855 0.684273C9.71868 0.183995 10.403 -0.0763565 11.1263 -0.0478898M8.71427 3.73525L13.3755 3.75322C13.5789 3.34628 13.6728 2.88883 13.6472 2.43035C13.5728 1.09261 12.4657 0.00436206 11.1263 -0.0478898M8.71427 3.73525L8.66959 3.75769C8.70716 3.8325 8.67822 3.89424 8.66337 3.91838C8.64548 3.94736 8.60588 3.99304 8.52889 3.99304H4.40157C4.17596 3.99304 3.99301 4.17599 3.99301 4.40161V8.52867C3.99301 8.605 3.94807 8.64396 3.91973 8.66148L3.91967 8.66151M8.71427 3.73525L3.91967 8.66151M11.1263 -0.0478898L11.1243 0.0020715M11.1263 -0.0478898C11.1263 -0.0478901 11.1263 -0.0478903 11.1263 -0.0478905L11.1243 0.0020715M11.1243 0.0020715C10.4146 -0.0258606 9.74352 0.229472 9.23322 0.72031L13.5973 2.43313C13.5243 1.12115 12.438 0.0533102 11.1243 0.0020715ZM3.91967 8.66151C3.89545 8.67653 3.83171 8.70656 3.75319 8.66738L3.91967 8.66151ZM13.96 12.8097L13.924 12.8444C13.4237 12.3242 13.1636 11.6393 13.1918 10.9166C13.2441 9.57713 14.3324 8.47011 15.6702 8.39563C16.1289 8.37005 16.5861 8.4641 16.9929 8.66737C16.993 8.66738 16.993 8.66738 16.993 8.66738L13.96 12.8097ZM13.96 12.8097L13.924 12.8444C14.4245 13.3647 15.0979 13.6515 15.8198 13.6515C16.2334 13.6515 16.6298 13.5579 16.9975 13.3733L16.9975 13.3733M13.96 12.8097L16.9975 13.3733M16.9975 13.3733C17.0724 13.3357 17.1341 13.3647 17.1582 13.3796M16.9975 13.3733L17.1582 13.3796M17.1582 13.3796C17.1871 13.3975 17.2328 13.4371 17.2328 13.514V17.2328H13.514C13.4371 17.2328 13.3975 17.1872 13.3796 17.1582C13.3648 17.1341 13.3358 17.0723 13.3734 16.9974C13.5579 16.6298 13.6515 16.2334 13.6515 15.8198C13.6515 15.0979 13.3648 14.4244 12.8444 13.924C12.3498 13.4483 11.7063 13.1898 11.0228 13.1898C10.9876 13.1898 10.9521 13.1905 10.9167 13.1918L10.9166 13.1918C9.57721 13.244 8.47011 14.3323 8.3956 15.67C8.3701 16.1285 8.46403 16.5859 8.66735 16.9929M17.1582 13.3796L17.2328 4.81017H13.5142C13.1745 4.81017 12.8647 4.63789 12.6865 4.34948C12.5056 4.05696 12.4901 3.6973 12.6446 3.38801C12.7844 3.1082 12.8491 2.79277 12.8314 2.47571C12.7802 1.55473 12.0169 0.804515 11.0945 0.768551L11.0945 0.76855C10.5955 0.748897 10.1237 0.928261 9.76499 1.27318C9.40611 1.61834 9.2086 2.08222 9.2086 2.58C9.2086 2.86547 9.27296 3.13818 9.39988 3.39104C9.554 3.69803 9.5387 4.05581 9.35881 4.34736C9.18013 4.63702 8.86966 4.8101 8.52893 4.8101H4.81017V8.52863C4.81017 8.86847 4.63789 9.17814 4.34945 9.35645L4.32316 9.31392L4.34944 9.35646C4.05688 9.53728 3.69723 9.55271 3.38798 9.39824L3.38797 9.39823C3.10825 9.25844 2.79264 9.1939 2.47579 9.21142C1.55481 9.26269 0.804587 10.0259 0.768553 10.9483C0.749039 11.4473 0.928203 11.9192 1.27311 12.2779C1.61831 12.6368 2.08222 12.8343 2.58 12.8343C2.86547 12.8343 3.13818 12.7699 3.39105 12.643C3.69804 12.4889 4.05577 12.5042 4.34736 12.6841C4.63703 12.8628 4.8101 13.1732 4.8101 13.514V17.2327H8.52864C8.60497 17.2327 8.64393 17.1878 8.66146 17.1594M8.66735 16.9929C8.66735 16.9928 8.66735 16.9928 8.66734 16.9928L8.71208 16.9705L8.66735 16.9929ZM8.66735 16.9929C8.70654 17.0714 8.67651 17.1351 8.66146 17.1594M8.66146 17.1594L8.70398 17.1858M8.66146 17.1594C8.66146 17.1594 8.66145 17.1595 8.66145 17.1595L8.70398 17.1858M8.70398 17.1858C8.68157 17.222 8.62904 17.2827 8.52864 17.2827H4.8101L8.70398 17.1858Z" fill="#5200FF" stroke="#5200FF" stroke-width="0.1"/>
<path d="M7.15624 5.32585H5.73454C5.50893 5.32585 5.32598 5.5088 5.32598 5.73442C5.32598 5.96003 5.50893 6.14298 5.73454 6.14298H7.15624C7.38186 6.14298 7.56481 5.96003 7.56481 5.73442C7.56481 5.5088 7.38186 5.32585 7.15624 5.32585Z" fill="#5200FF" stroke="#5200FF" stroke-width="0.1"/>
<path d="M8.88828 5.32585H8.48845C8.26283 5.32585 8.07988 5.5088 8.07988 5.73442C8.07988 5.96003 8.26283 6.14298 8.48845 6.14298H8.88828C9.11389 6.14298 9.29684 5.96003 9.29684 5.73442C9.29684 5.5088 9.11389 5.32585 8.88828 5.32585Z" fill="#5200FF" stroke="#5200FF" stroke-width="0.1"/>
</svg>
