<svg width="18" height="18" viewBox="0 0 18 18" fill="none" xmlns="http://www.w3.org/2000/svg">
<path d="M0 1C0 0.447715 0.447715 0 1 0C1.55228 0 2 0.447715 2 1V3C2 3.55228 1.55228 4 1 4C0.447715 4 0 3.55228 0 3V1ZM7.02787 17.342C6.88409 17.7371 6.50858 18 6.08818 18C5.39409 18 4.91109 17.3102 5.14849 16.658L10.972 0.657963C11.1158 0.262928 11.4913 0 11.9117 0C12.6058 0 13.0887 0.68977 12.8514 1.34198L7.02787 17.342ZM18 1C18 0.447715 17.5523 0 17 0C16.4477 0 16 0.447715 16 1V3C16 3.55228 16.4477 4 17 4C17.5523 4 18 3.55228 18 3V1Z" fill="#5200FF"/>
</svg>
