<svg width="21" height="18" viewBox="0 0 21 18" fill="none" xmlns="http://www.w3.org/2000/svg">
<path d="M6.92492 10.8317C5.88489 10.8317 5.03589 9.88718 5.03589 8.73048C5.03589 7.57368 5.86366 6.62915 6.92492 6.62915C7.97553 6.62915 8.8351 7.57368 8.8139 8.73048C8.8139 9.88718 7.97553 10.8317 6.92492 10.8317ZM13.8984 10.8317C12.8583 10.8317 12.0083 9.88718 12.0083 8.73048C12.0083 7.57368 12.8371 6.62915 13.8984 6.62915C14.949 6.62915 15.8086 7.57368 15.7874 8.73048C15.7874 9.88718 14.9596 10.8317 13.8984 10.8317ZM8.5296 1.3088L8.22085 0.74585L7.58753 0.8514C6.12345 1.09542 4.73088 1.5326 3.42974 2.13188L3.20081 2.23732L3.05937 2.44593C0.4461 6.30025 -0.2699 10.0945 0.0846203 13.8221L0.12327 14.2284L0.45342 14.4683C2.19281 15.7324 3.87847 16.5047 5.53157 17.0115L6.32087 17.2535L7.43443 14.5365C9.344 15.0085 11.4635 15.0086 13.3733 14.5369L14.48 17.2542L15.2711 17.0115C16.9216 16.5052 18.618 15.733 20.3509 14.467L20.6769 14.2289L20.7174 13.8273C21.1534 9.50708 20.0203 5.74357 17.759 2.44236L17.6171 2.23528L17.3889 2.13088C16.081 1.53268 14.6895 1.09565 13.2352 0.85157L12.6175 0.7479L12.303 1.28952C12.2155 1.44028 12.1258 1.61048 12.0407 1.7827C10.9484 1.67053 9.8603 1.67029 8.7769 1.78235C8.6925 1.61319 8.6068 1.44964 8.5296 1.3088ZM5.11866 13.5961C5.31665 13.7101 5.52403 13.8217 5.72987 13.9239L5.2807 15.0199C4.16015 14.6117 3.02267 14.0496 1.8519 13.2416C1.62743 10.1036 2.26522 6.93683 4.41626 3.6721C5.31392 3.27707 6.2578 2.96863 7.24036 2.75879C7.30061 2.88415 7.35665 3.0065 7.40269 3.115L7.67558 3.75821L8.36689 3.65682C9.7195 3.45843 11.0815 3.45817 12.4566 3.65708L13.1467 3.7569L13.419 3.115C13.4664 3.00327 13.521 2.88131 13.5786 2.75906C14.5568 2.96909 15.5023 3.27796 16.4072 3.67395C18.2824 6.49441 19.2284 9.64018 18.9529 13.2411C17.788 14.0484 16.6465 14.6107 15.5236 15.0194L15.0778 13.9248C15.2842 13.8223 15.4922 13.7104 15.6908 13.5961C16.1806 13.3138 16.7082 12.9618 17.0445 12.6256L15.7649 11.3461C15.6012 11.5098 15.2413 11.7666 14.7874 12.0282C14.3431 12.2842 13.9023 12.491 13.6207 12.5841C11.6169 13.2467 9.1926 13.2467 7.18873 12.5841C6.90715 12.491 6.46635 12.2842 6.02202 12.0282C5.56813 11.7666 5.20822 11.5098 5.04447 11.3461L3.76495 12.6256C4.1012 12.9618 4.6288 13.3138 5.11866 13.5961Z" fill="#5200FF"/>
</svg>
