<svg width="18" height="18" viewBox="0 0 18 18" fill="none" xmlns="http://www.w3.org/2000/svg">
<path fill-rule="evenodd" clip-rule="evenodd" d="M10.6364 1.63636C10.6364 2.24205 10.3073 2.77088 9.81818 3.05381V3.27273H15.5455C16.9011 3.27273 18 4.37167 18 5.72727V15.5455C18 16.9011 16.9011 18 15.5455 18H2.45455C1.09894 18 0 16.9011 0 15.5455V5.72727C0 4.37167 1.09894 3.27273 2.45455 3.27273H8.18182V3.05381C7.69271 2.77088 7.36364 2.24205 7.36364 1.63636C7.36364 0.732625 8.09624 0 9 0C9.90376 0 10.6364 0.732625 10.6364 1.63636ZM2.45455 4.90909H8.18182H9.81818H15.5455C15.9973 4.90909 16.3636 5.27541 16.3636 5.72727V15.5455C16.3636 15.9973 15.9973 16.3636 15.5455 16.3636H2.45455C2.00268 16.3636 1.63636 15.9973 1.63636 15.5455V5.72727C1.63636 5.27541 2.00268 4.90909 2.45455 4.90909ZM11.4545 9.40909C11.4545 8.73131 12.004 8.18182 12.6818 8.18182C13.3596 8.18182 13.9091 8.73131 13.9091 9.40909C13.9091 10.0869 13.3596 10.6364 12.6818 10.6364C12.004 10.6364 11.4545 10.0869 11.4545 9.40909ZM12.6818 6.54545C11.1003 6.54545 9.81818 7.82755 9.81818 9.40909C9.81818 10.9906 11.1003 12.2727 12.6818 12.2727C14.2634 12.2727 15.5455 10.9906 15.5455 9.40909C15.5455 7.82755 14.2634 6.54545 12.6818 6.54545ZM5.31818 8.18182C4.64038 8.18182 4.09091 8.73131 4.09091 9.40909C4.09091 10.0869 4.64038 10.6364 5.31818 10.6364C5.99599 10.6364 6.54545 10.0869 6.54545 9.40909C6.54545 8.73131 5.99599 8.18182 5.31818 8.18182ZM2.45455 9.40909C2.45455 7.82755 3.73664 6.54545 5.31818 6.54545C6.89973 6.54545 8.18182 7.82755 8.18182 9.40909C8.18182 10.9906 6.89973 12.2727 5.31818 12.2727C3.73664 12.2727 2.45455 10.9906 2.45455 9.40909ZM8.09542 13.5432C7.89333 13.139 7.40193 12.9752 6.99774 13.1773C6.59357 13.3794 6.42975 13.8708 6.63183 14.275C7.10224 15.2158 8.16725 15.5455 9 15.5455C9.83275 15.5455 10.8978 15.2158 11.3681 14.275C11.5702 13.8708 11.4064 13.3794 11.0023 13.1773C10.5981 12.9752 10.1067 13.139 9.90458 13.5432C9.82955 13.6933 9.53084 13.9091 9 13.9091C8.46916 13.9091 8.17045 13.6933 8.09542 13.5432Z" fill="#5200FF"/>
</svg>
