<svg width="18" height="20" viewBox="0 0 18 20" fill="none" xmlns="http://www.w3.org/2000/svg">
<path d="M2 10C2 10.3134 2.46101 10.8584 3.53047 11.3931C4.91405 12.0849 6.87677 12.5 9 12.5C11.1232 12.5 13.0859 12.0849 14.4695 11.3931C15.539 10.8584 16 10.3134 16 10V7.8287C14.35 8.8482 11.8273 9.5 9 9.5C6.17273 9.5 3.64996 8.8482 2 7.8287V10ZM16 12.8287C14.35 13.8482 11.8273 14.5 9 14.5C6.17273 14.5 3.64996 13.8482 2 12.8287V15C2 15.3134 2.46101 15.8584 3.53047 16.3931C4.91405 17.0849 6.87677 17.5 9 17.5C11.1232 17.5 13.0859 17.0849 14.4695 16.3931C15.539 15.8584 16 15.3134 16 15V12.8287ZM0 15V5C0 2.51472 4.02944 0.5 9 0.5C13.9706 0.5 18 2.51472 18 5V15C18 17.4853 13.9706 19.5 9 19.5C4.02944 19.5 0 17.4853 0 15ZM9 7.5C11.1232 7.5 13.0859 7.08492 14.4695 6.39313C15.539 5.8584 16 5.31342 16 5C16 4.68658 15.539 4.1416 14.4695 3.60687C13.0859 2.91508 11.1232 2.5 9 2.5C6.87677 2.5 4.91405 2.91508 3.53047 3.60687C2.46101 4.1416 2 4.68658 2 5C2 5.31342 2.46101 5.8584 3.53047 6.39313C4.91405 7.08492 6.87677 7.5 9 7.5Z" fill="#5200FF"/>
</svg>
