<svg width="20" height="20" viewBox="0 0 20 20" fill="none" xmlns="http://www.w3.org/2000/svg">
<path d="M6 14.5C6 14.5 13 15.5 16 18.5H17C17.5523 18.5 18 18.0523 18 17.5V11.437C18.8626 11.215 19.5 10.4319 19.5 9.5C19.5 8.5681 18.8626 7.785 18 7.563V1.5C18 0.94772 17.5523 0.5 17 0.5H16C13 3.5 6 4.5 6 4.5H2C0.89543 4.5 0 5.39543 0 6.5V12.5C0 13.6046 0.89543 14.5 2 14.5H3L4 19.5H6V14.5ZM8 6.1612C8.6833 6.0146 9.5275 5.81193 10.4393 5.54373C12.1175 5.05014 14.25 4.27262 16 3.07458V15.9254C14.25 14.7274 12.1175 13.9499 10.4393 13.4563C9.5275 13.1881 8.6833 12.9854 8 12.8388V6.1612ZM2 6.5H6V12.5H2V6.5Z" fill="black"/>
</svg>
