<svg width="22" height="16" viewBox="0 0 22 16" fill="none" xmlns="http://www.w3.org/2000/svg">
<path d="M2 14H20V2H2V14ZM0 1C0 0.44772 0.44772 0 1 0H21C21.5523 0 22 0.44772 22 1V15C22 15.5523 21.5523 16 21 16H1C0.44772 16 0 15.5523 0 15V1ZM8 6C8 5.44772 7.55228 5 7 5C6.44772 5 6 5.44772 6 6C6 6.5523 6.44772 7 7 7C7.55228 7 8 6.5523 8 6ZM10 6C10 7.6569 8.65685 9 7 9C5.34315 9 4 7.6569 4 6C4 4.34315 5.34315 3 7 3C8.65685 3 10 4.34315 10 6ZM7.0018 12C6.03503 12 5.1614 12.3907 4.52693 13.0251L3.11272 11.6109C4.10693 10.6167 5.4833 10 7.0018 10C8.52031 10 9.8967 10.6167 10.8909 11.6109L9.4767 13.0251C8.84221 12.3907 7.96858 12 7.0018 12ZM15.2071 10.7071L19.2071 6.7071L17.7929 5.29289L14.5 8.5858L12.7071 6.7929L11.2929 8.2071L13.7929 10.7071L14.5 11.4142L15.2071 10.7071Z" fill="#D2D2D2"/>
</svg>
