<svg width="38" height="37" viewBox="0 0 38 37" fill="none" xmlns="http://www.w3.org/2000/svg">
<rect width="37.6752" height="36.0777" rx="18.0389" fill="white"/>
<path d="M10.1633 14.9292C10.1138 14.9118 10.1589 14.6654 10.1667 14.6211C10.237 14.2149 10.2822 12.6623 10.2318 8.33934C10.04 8.1866 9.69026 7.93751 9.45072 8.0677C9.2945 8.15275 9.23288 8.33761 9.21292 8.40704C8.73385 10.069 9.21292 21.9599 9.21292 21.9599C9.23549 22.5223 9.2433 22.9727 9.24677 23.2166C9.32748 23.6089 9.49759 24.1999 9.89247 24.8127C10.2032 25.2952 10.6744 25.8255 11.6248 26.4087C12.668 27.0501 13.8795 27.5048 15.5311 27.8016C18.6798 28.3675 21.1038 27.9431 23.0713 27.5977C23.9991 27.4354 24.9971 27.2097 26.0941 26.6126C27.7258 25.7248 28.1979 24.7649 28.302 24.541C28.4921 24.1296 28.5711 23.7538 28.6075 23.4883C28.6301 18.4276 28.6527 13.3661 28.6752 8.3055C28.4713 8.20395 28.2673 8.10154 28.0642 8C27.928 8.10154 27.7926 8.20395 27.6563 8.3055C27.6338 10.4908 27.6112 12.6762 27.5886 14.8615C27.1773 14.2288 26.43 13.2585 25.2106 12.4496C24.052 11.6807 23.0166 11.4238 22.0515 11.1929C20.9215 10.923 18.3951 10.3511 15.394 11.1929C15.394 11.1929 13.0837 11.8413 11.6239 13.1292C11.1683 13.531 10.8558 13.8061 10.5712 14.2843C10.3976 14.5742 10.2266 14.9518 10.1633 14.9292Z" fill="#252525"/>
<path d="M22.5441 24.3375H15.3094C13.2924 24.3375 11.6582 22.7024 11.6582 20.6863C11.6582 18.6694 13.2933 17.0352 15.3094 17.0352H22.5441C24.561 17.0352 26.1953 18.6702 26.1953 20.6863C26.1953 22.7033 24.561 24.3375 22.5441 24.3375Z" fill="white"/>
<path d="M22.581 22.1224C23.3738 22.1224 24.0165 21.4797 24.0165 20.6869C24.0165 19.8942 23.3738 19.2515 22.581 19.2515C21.7882 19.2515 21.1455 19.8942 21.1455 20.6869C21.1455 21.4797 21.7882 22.1224 22.581 22.1224Z" fill="#252525"/>
<path d="M15.2148 22.1224C16.0076 22.1224 16.6503 21.4797 16.6503 20.6869C16.6503 19.8942 16.0076 19.2515 15.2148 19.2515C14.422 19.2515 13.7793 19.8942 13.7793 20.6869C13.7793 21.4797 14.422 22.1224 15.2148 22.1224Z" fill="#252525"/>
<path d="M15.2976 21.1102C15.5315 21.1102 15.7211 20.9206 15.7211 20.6867C15.7211 20.4528 15.5315 20.2632 15.2976 20.2632C15.0636 20.2632 14.874 20.4528 14.874 20.6867C14.874 20.9206 15.0636 21.1102 15.2976 21.1102Z" fill="white"/>
<path d="M22.5813 21.1919C22.8602 21.1919 23.0864 20.9657 23.0864 20.6867C23.0864 20.4078 22.8602 20.1816 22.5813 20.1816C22.3023 20.1816 22.0762 20.4078 22.0762 20.6867C22.0762 20.9657 22.3023 21.1919 22.5813 21.1919Z" fill="white"/>
</svg>
