<svg width="21" height="21" viewBox="0 0 21 21" fill="none" xmlns="http://www.w3.org/2000/svg">
<path d="M15.75 3.2C15.75 3.75229 16.1977 4.2 16.75 4.2H20C20.5523 4.2 21 4.64772 21 5.2V5.3C21 5.85228 20.5523 6.3 20 6.3H19.9C19.3477 6.3 18.9 6.74771 18.9 7.3V19.95C18.9 20.5299 18.4299 21 17.85 21H3.15C2.57011 21 2.1 20.5299 2.1 19.95V7.3C2.1 6.74772 1.65228 6.3 1.1 6.3H1C0.447716 6.3 0 5.85228 0 5.3V5.2C0 4.64772 0.447715 4.2 1 4.2H4.25C4.80228 4.2 5.25 3.75228 5.25 3.2V1.05C5.25 0.470106 5.72011 0 6.3 0H14.7C15.2799 0 15.75 0.470106 15.75 1.05V3.2ZM16.8 7.3C16.8 6.74771 16.3523 6.3 15.8 6.3H5.2C4.64771 6.3 4.2 6.74771 4.2 7.3V17.9C4.2 18.4523 4.64772 18.9 5.2 18.9H15.8C16.3523 18.9 16.8 18.4523 16.8 17.9V7.3ZM8.35 2.1C7.79771 2.1 7.35 2.54771 7.35 3.1V3.2C7.35 3.75228 7.79771 4.2 8.35 4.2H12.65C13.2023 4.2 13.65 3.75228 13.65 3.2V3.1C13.65 2.54772 13.2023 2.1 12.65 2.1H8.35Z" fill="black"/>
</svg>
