<svg width="30" height="32" viewBox="0 0 30 32" fill="none" xmlns="http://www.w3.org/2000/svg">
<path d="M11.661 13.7143C12.6497 13.7143 13.4506 14.4 13.4325 15.2381C13.4325 16.0762 12.6514 16.7619 11.661 16.7619C10.6887 16.7619 9.88776 16.0762 9.88776 15.2381C9.88776 14.4 10.6705 13.7143 11.661 13.7143ZM18.0023 13.7143C18.9927 13.7143 19.7755 14.4 19.7755 15.2381C19.7755 16.0762 18.9927 16.7619 18.0023 16.7619C17.03 16.7619 16.2308 16.0762 16.2308 15.2381C16.2308 14.4 17.0119 13.7143 18.0023 13.7143ZM26.1877 0C28.1043 0 29.6633 1.472 29.6633 3.296V32L26.0196 28.96L23.9679 27.168L21.7976 25.2632L22.6973 28.224H3.47555C1.55897 28.224 0 26.752 0 24.928V3.296C0 1.472 1.55897 0 3.47555 0H26.1861H26.1877ZM19.6453 20.896C23.3911 20.7848 24.8331 18.464 24.8331 18.464C24.8331 13.312 22.3908 9.13524 22.3908 9.13524C19.9518 7.40876 17.6282 7.456 17.6282 7.456L17.3909 7.712C20.2732 8.544 21.6113 9.74476 21.6113 9.74476C20.0376 8.92494 18.3033 8.4028 16.5093 8.20876C15.3712 8.08991 14.2218 8.10015 13.0864 8.23924C12.9843 8.23924 12.8986 8.256 12.7981 8.27124C12.2048 8.32 10.7628 8.52724 8.95007 9.28C8.32384 9.55124 7.94976 9.74476 7.94976 9.74476C7.94976 9.74476 9.35711 8.48 12.4075 7.648L12.2377 7.456C12.2377 7.456 9.91577 7.40876 7.47514 9.13676C7.47514 9.13676 5.03452 13.312 5.03452 18.464C5.03452 18.464 6.45835 20.7832 10.2042 20.896C10.2042 20.896 10.8304 20.1768 11.3413 19.5688C9.18737 18.9592 8.37493 17.6792 8.37493 17.6792C8.37493 17.6792 8.54302 17.792 8.84789 17.952C8.86437 17.9672 8.88085 17.984 8.91546 17.9992C8.96655 18.0328 9.01763 18.048 9.06872 18.08C9.49225 18.304 9.91577 18.4792 10.3047 18.624C11.0001 18.88 11.8307 19.136 12.7981 19.3128C14.2471 19.5754 15.737 19.5806 17.1882 19.328C18.0335 19.1885 18.8581 18.9578 19.6453 18.6408C20.2386 18.432 20.8994 18.1272 21.5949 17.696C21.5949 17.696 20.7478 19.008 18.5264 19.6008C19.0356 20.2088 19.647 20.896 19.647 20.896H19.6453Z" fill="white"/>
</svg>
