<svg width="12" height="20" viewBox="0 0 12 20" fill="none" xmlns="http://www.w3.org/2000/svg">
<path d="M6 17C6.8284 17 7.5 17.6716 7.5 18.5C7.5 19.3284 6.8284 20 6 20C5.1716 20 4.5 19.3284 4.5 18.5C4.5 17.6716 5.1716 17 6 17ZM6 0C9.3137 0 12 2.68629 12 6C12 8.1646 11.2474 9.2907 9.3259 10.9231C7.3986 12.5604 7 13.2969 7 15H5C5 12.526 5.787 11.3052 8.031 9.3989C9.5479 8.1102 10 7.43374 10 6C10 3.79086 8.2091 2 6 2C3.79086 2 2 3.79086 2 6V7H0V6C0 2.68629 2.68629 0 6 0Z" fill="black" fill-opacity="0.79"/>
</svg>
