<svg width="18" height="18" viewBox="0 0 18 18" fill="none" xmlns="http://www.w3.org/2000/svg">
<path d="M15.7127 9.16157C16.0382 9.14357 16.3624 9.20983 16.6501 9.35358C16.944 9.50041 17.2853 9.48564 17.5629 9.31396C17.8365 9.14482 17.9999 8.85123 17.9999 8.52871V4.40161C17.9999 4.20361 17.8393 4.04304 17.6413 4.04304H13.5142C13.4138 4.04304 13.3613 3.9823 13.3389 3.94609C13.3197 3.915 13.2804 3.83174 13.3308 3.73088C13.5302 3.3318 13.6224 2.88302 13.5973 2.43313C13.5243 1.12115 12.438 0.0533102 11.1243 0.0020715C10.4146 -0.0258606 9.74352 0.229472 9.23322 0.72031C8.72262 1.21133 8.44144 1.8718 8.44144 2.58003C8.44144 2.98596 8.53319 3.37461 8.71427 3.73525C8.76321 3.83271 8.7247 3.91414 8.70591 3.94465C8.68322 3.98141 8.63008 4.04304 8.52889 4.04304H4.40157C4.20358 4.04304 4.04301 4.20361 4.04301 4.40161V8.52867C4.04301 8.62907 3.98227 8.6816 3.94602 8.70401C3.91497 8.72326 3.83171 8.76245 3.73085 8.71211C3.3318 8.51275 2.88327 8.42045 2.43317 8.44555C1.12119 8.51859 0.0533127 9.60483 0.00203818 10.9185C-0.0256429 11.6276 0.229403 12.2993 0.720241 12.8097C1.21129 13.3203 1.87177 13.6015 2.58004 13.6015C2.98597 13.6015 3.37461 13.5097 3.73526 13.3286C3.83286 13.2797 3.91418 13.3183 3.94466 13.337C3.98141 13.3597 4.04305 13.4128 4.04305 13.514V17.6414C4.04305 17.8394 4.20361 18 4.40161 18H8.52868C8.85124 18 9.14476 17.8366 9.31393 17.563C9.48561 17.2853 9.50042 16.9441 9.35355 16.6501C9.20987 16.3625 9.14343 16.0383 9.16154 15.7127C9.21425 14.766 9.99835 13.9954 10.9465 13.9584C11.4585 13.9385 11.9441 14.1225 12.3126 14.4769C12.6813 14.8315 12.8843 15.3084 12.8843 15.8198C12.8843 16.113 12.8182 16.3934 12.6878 16.6533C12.5414 16.9448 12.5559 17.2841 12.7267 17.5609C12.8962 17.8358 13.1906 17.9999 13.514 17.9999H17.6413C17.8393 17.9999 17.9999 17.8393 17.9999 17.6413V13.514C17.9999 13.1906 17.8358 12.8963 17.5609 12.7267C17.2841 12.5559 16.9448 12.5414 16.6533 12.6878C16.3934 12.8182 16.1129 12.8844 15.8197 12.8844C15.3084 12.8844 14.8315 12.6813 14.4769 12.3126C14.1225 11.9441 13.9383 11.4589 13.9583 10.9465C13.9954 9.99831 14.766 9.21428 15.7127 9.16157ZM13.96 12.8097C14.4511 13.3203 15.1115 13.6015 15.8198 13.6015C16.2257 13.6015 16.6144 13.5097 16.9751 13.3286C17.0725 13.2797 17.1539 13.3182 17.1844 13.337C17.2211 13.3597 17.2828 13.4128 17.2828 13.514V17.2828H13.514C13.4128 17.2828 13.3597 17.2211 13.337 17.1844C13.3182 17.1539 13.2798 17.0725 13.3287 16.975C13.5097 16.6143 13.6015 16.2257 13.6015 15.8198C13.6015 15.1115 13.3203 14.4511 12.8097 13.96C12.3244 13.4933 11.6934 13.2398 11.0228 13.2398C10.9882 13.2398 10.9534 13.2404 10.9186 13.2417C9.6049 13.293 8.5186 14.3608 8.44552 15.6728C8.4205 16.1227 8.51268 16.5715 8.71208 16.9705C8.76246 17.0714 8.7232 17.1547 8.70398 17.1858C8.68157 17.222 8.62904 17.2827 8.52864 17.2827H4.7601V13.514C4.7601 13.1905 4.59599 12.8962 4.32111 12.7266C4.04434 12.5559 3.70503 12.5414 3.41348 12.6877C3.15359 12.8181 2.8732 12.8843 2.58 12.8843C2.06862 12.8843 1.59169 12.6812 1.23707 12.3125C0.882706 11.944 0.698547 11.4588 0.718591 10.9464C0.755631 9.99824 1.52626 9.21421 2.47301 9.1615C2.7984 9.1435 3.12269 9.20976 3.41033 9.35351C3.7042 9.50031 4.04545 9.48557 4.32316 9.31392C4.59681 9.14475 4.76017 8.8512 4.76017 8.52863V4.7601H8.52893C8.85235 4.7601 9.14669 4.59598 9.31626 4.32111C9.48701 4.04437 9.50156 3.70503 9.3552 3.41348C9.22475 3.15359 9.1586 2.8732 9.1586 2.58C9.1586 2.06861 9.36165 1.59173 9.73033 1.23714C10.0988 0.882774 10.5839 0.698401 11.0964 0.718588C12.0446 0.755556 12.8286 1.52618 12.8813 2.47293C12.8995 2.79854 12.8331 3.12265 12.6894 3.41036C12.5425 3.70427 12.5573 4.04552 12.729 4.32319C12.8981 4.59681 13.1917 4.76017 13.5142 4.76017H17.2828V8.52867C17.2828 8.62907 17.222 8.68163 17.1858 8.70401C17.1547 8.72326 17.0715 8.76245 16.9706 8.71211C16.5716 8.51275 16.1231 8.42045 15.6729 8.44555C14.361 8.51859 13.2931 9.60483 13.2418 10.9185C13.2141 11.6277 13.4692 12.2993 13.96 12.8097Z" fill="black" fill-opacity="0.79"/>
<path d="M7.15624 5.37598H5.73454C5.53654 5.37598 5.37598 5.53654 5.37598 5.73454C5.37598 5.93254 5.53654 6.0931 5.73454 6.0931H7.15624C7.35424 6.0931 7.51481 5.93254 7.51481 5.73454C7.51481 5.53654 7.35424 5.37598 7.15624 5.37598Z" fill="black" fill-opacity="0.79"/>
<path d="M7.15624 5.32598H5.73454C5.50893 5.32598 5.32598 5.50893 5.32598 5.73454C5.32598 5.96015 5.50893 6.1431 5.73454 6.1431H7.15624C7.38186 6.1431 7.56481 5.96015 7.56481 5.73454C7.56481 5.50893 7.38186 5.32598 7.15624 5.32598Z" stroke="black" stroke-opacity="0.79" stroke-width="1"/>
<path d="M8.88828 5.37598H8.48845C8.29045 5.37598 8.12988 5.53654 8.12988 5.73454C8.12988 5.93254 8.29045 6.0931 8.48845 6.0931H8.88828C9.08628 6.0931 9.24684 5.93254 9.24684 5.73454C9.24684 5.53654 9.08628 5.37598 8.88828 5.37598Z" fill="black" fill-opacity="0.79"/>
<path d="M8.88828 5.32598H8.48845C8.26283 5.32598 8.07988 5.50893 8.07988 5.73454C8.07988 5.96015 8.26283 6.1431 8.48845 6.1431H8.88828C9.11389 6.1431 9.29684 5.96015 9.29684 5.73454C9.29684 5.50893 9.11389 5.32598 8.88828 5.32598Z" stroke="black" stroke-opacity="0.79" stroke-width="1"/>
</svg>
