<svg width="92" height="82" viewBox="0 0 92 82" fill="none" xmlns="http://www.w3.org/2000/svg">
<path d="M81.7445 55.7325L84.3 58.2633V54.6667V9.11111V7.61111H82.8H9.2H7.7V9.11111V72.8889V76.4855L10.2555 73.9547L55.2 29.4444L81.7445 55.7325ZM84.3 67.5516V66.926L83.8555 66.4858L56.2555 39.1525L55.2 38.1072L54.1445 39.1525L21.1553 71.8231L18.5645 74.3889H22.2108H82.8H84.3V72.8889V67.5516ZM4.56228 80.5C2.85972 80.5 1.5 79.1335 1.5 77.4745V4.52549C1.5 2.87697 2.90026 1.5 4.56228 1.5H87.4377C89.1404 1.5 90.5 2.86662 90.5 4.52549V77.4745C90.5 79.1229 89.0997 80.5 87.4377 80.5H4.56228ZM27.6 34.9444C23.3336 34.9444 19.9 31.5233 19.9 27.3333C19.9 23.1435 23.3336 19.7222 27.6 19.7222C31.8664 19.7222 35.3 23.1435 35.3 27.3333C35.3 31.5233 31.8664 34.9444 27.6 34.9444Z" fill="#9A9A9A" stroke="#F2EBFF" stroke-width="3"/>
</svg>
