<svg width="32" height="32" viewBox="0 0 32 32" fill="none" xmlns="http://www.w3.org/2000/svg">
<path d="M16 11.2C14.727 11.2 13.5061 11.7057 12.6059 12.6059C11.7057 13.5061 11.2 14.727 11.2 16C11.2 17.273 11.7057 18.4939 12.6059 19.3941C13.5061 20.2943 14.727 20.8 16 20.8C17.273 20.8 18.4939 20.2943 19.3941 19.3941C20.2943 18.4939 20.8 17.273 20.8 16C20.8 14.727 20.2943 13.5061 19.3941 12.6059C18.4939 11.7057 17.273 11.2 16 11.2ZM16 8C18.1217 8 20.1566 8.84285 21.6569 10.3431C23.1571 11.8434 24 13.8783 24 16C24 18.1217 23.1571 20.1566 21.6569 21.6569C20.1566 23.1571 18.1217 24 16 24C13.8783 24 11.8434 23.1571 10.3431 21.6569C8.84285 20.1566 8 18.1217 8 16C8 13.8783 8.84285 11.8434 10.3431 10.3431C11.8434 8.84285 13.8783 8 16 8ZM26.4 7.6C26.4 8.13043 26.1893 8.63914 25.8142 9.01421C25.4391 9.38929 24.9304 9.6 24.4 9.6C23.8696 9.6 23.3609 9.38929 22.9858 9.01421C22.6107 8.63914 22.4 8.13043 22.4 7.6C22.4 7.06957 22.6107 6.56086 22.9858 6.18579C23.3609 5.81071 23.8696 5.6 24.4 5.6C24.9304 5.6 25.4391 5.81071 25.8142 6.18579C26.1893 6.56086 26.4 7.06957 26.4 7.6ZM16 3.2C12.0416 3.2 11.3952 3.2112 9.5536 3.2928C8.2992 3.352 7.4576 3.52 6.6768 3.824C5.9824 4.0928 5.4816 4.4144 4.9488 4.9488C4.44801 5.43264 4.06296 6.02333 3.8224 6.6768C3.5184 7.4608 3.3504 8.3008 3.2928 9.5536C3.2096 11.32 3.2 11.9376 3.2 16C3.2 19.9584 3.2112 20.6048 3.2928 22.4464C3.352 23.6992 3.52 24.5424 3.8224 25.3216C4.0944 26.0176 4.4144 26.5184 4.9456 27.0496C5.4848 27.5872 5.9856 27.9088 6.6736 28.1744C7.464 28.48 8.3056 28.6496 9.5536 28.7072C11.32 28.7904 11.9376 28.8 16 28.8C19.9584 28.8 20.6048 28.7888 22.4464 28.7072C23.6976 28.648 24.5408 28.48 25.3216 28.1776C26.0144 27.9072 26.5184 27.5856 27.0496 27.0544C27.5888 26.5152 27.9104 26.0144 28.176 25.3264C28.48 24.5376 28.6496 23.6944 28.7072 22.4464C28.7904 20.68 28.8 20.0624 28.8 16C28.8 12.0416 28.7888 11.3952 28.7072 9.5536C28.648 8.3024 28.48 7.4576 28.176 6.6768C27.9349 6.024 27.5505 5.43354 27.0512 4.9488C26.5676 4.44775 25.9768 4.06267 25.3232 3.8224C24.5392 3.5184 23.6976 3.3504 22.4464 3.2928C20.68 3.2096 20.0624 3.2 16 3.2ZM16 0C20.3472 0 20.8896 0.0159999 22.5952 0.0959999C24.2992 0.176 25.4592 0.4432 26.48 0.84C27.536 1.2464 28.4256 1.7968 29.3152 2.6848C30.1288 3.48463 30.7583 4.45214 31.16 5.52C31.5552 6.5392 31.824 7.7008 31.904 9.4048C31.9792 11.1104 32 11.6528 32 16C32 20.3472 31.984 20.8896 31.904 22.5952C31.824 24.2992 31.5552 25.4592 31.16 26.48C30.7595 27.5484 30.1298 28.5162 29.3152 29.3152C28.5151 30.1285 27.5477 30.758 26.48 31.16C25.4608 31.5552 24.2992 31.824 22.5952 31.904C20.8896 31.9792 20.3472 32 16 32C11.6528 32 11.1104 31.984 9.4048 31.904C7.7008 31.824 6.5408 31.5552 5.52 31.16C4.45172 30.7592 3.48404 30.1295 2.6848 29.3152C1.87105 28.5155 1.24149 27.548 0.84 26.48C0.4432 25.4608 0.176 24.2992 0.0959999 22.5952C0.0207999 20.8896 0 20.3472 0 16C0 11.6528 0.0159999 11.1104 0.0959999 9.4048C0.176 7.6992 0.4432 6.5408 0.84 5.52C1.24038 4.45149 1.87009 3.48371 2.6848 2.6848C3.48427 1.87077 4.45189 1.24117 5.52 0.84C6.5408 0.4432 7.6992 0.176 9.4048 0.0959999C11.1104 0.0207999 11.6528 0 16 0Z" fill="white"/>
</svg>
