<svg width="258" height="146" viewBox="0 0 258 146" fill="none" xmlns="http://www.w3.org/2000/svg">
<path d="M263.3 134.975L266.1 142.325L264.231 143.037L264.598 144H263.875V146H256.625V144H249.375V146H242.125V144H234.875V146H227.625V144H220.375V146H213.125V144H210.87L209.94 141.602L208.075 142.325L205.225 134.975L207.09 134.252L204.24 126.902L202.375 127.625L199.525 120.275L201.39 119.552L198.54 112.202L196.675 112.925L193.825 105.575L195.69 104.852L192.84 97.5019L190.975 98.225L188.125 90.875L189.99 90.1519L187.14 82.8019L185.275 83.525L182.425 76.175L184.29 75.4519L183.147 72.505L184.286 69.6067L182.425 68.875L185.275 61.625L187.136 62.3567L189.986 55.1067L188.125 54.375L190.975 47.125L192.836 47.8567L195.686 40.6067L193.825 39.875L196.675 32.625L198.536 33.3567L201.386 26.1067L199.525 25.375L202.375 18.125L204.236 18.8567L207.086 11.6067L205.225 10.875L208.075 3.625L209.936 4.3567L210.863 2H213.125V0H220.375V2H227.625V0H234.875V2H242.125V0H249.375V2H256.625V0H263.875V2H264.584L264.234 2.90446L266.1 3.625L263.3 10.875L261.434 10.1545L258.634 17.4044L260.5 18.125L257.7 25.375L255.834 24.6545L253.034 31.9045L254.9 32.625L252.1 39.875L250.234 39.1545L247.434 46.4045L249.3 47.125L246.5 54.375L244.634 53.6545L241.834 60.9045L243.7 61.625L240.9 68.875L239.034 68.1545L237.634 71.7795L237.358 72.4951L237.631 73.212L239.031 76.887L240.9 76.175L243.7 83.525L241.831 84.237L244.631 91.587L246.5 90.875L249.3 98.225L247.431 98.937L250.231 106.287L252.1 105.575L254.9 112.925L253.031 113.637L255.831 120.987L257.7 120.275L260.5 127.625L258.631 128.337L261.431 135.687L263.3 134.975Z" stroke="#5200FF" stroke-width="4" stroke-dasharray="8 8"/>
<path d="M120.363 2H174.084L147.134 71.7795L146.858 72.4951L147.131 73.212L174.098 144H120.37L92.647 72.505L120.363 2Z" stroke="#5200FF" stroke-width="4"/>
<path d="M86.5 146H28.5L0 72.5L28.5 0H86.5L58.5 72.5L86.5 146Z" fill="#5200FF"/>
</svg>
