<svg width="36" height="32" viewBox="0 0 36 32" fill="none" xmlns="http://www.w3.org/2000/svg">
<path d="M7.36963 4.13933C7.36914 5.05281 6.98045 5.92869 6.28907 6.57429C5.59769 7.21989 4.66025 7.58232 3.68297 7.58187C2.7057 7.58141 1.76865 7.2181 1.07795 6.57185C0.387263 5.9256 -0.000488176 5.04936 4.61268e-07 4.13589C0.000489098 3.22242 0.389178 2.34654 1.08056 1.70094C1.77194 1.05534 2.70938 0.692903 3.68666 0.69336C4.66393 0.693817 5.60099 1.05713 6.29168 1.70338C6.98237 2.34962 7.37012 3.22586 7.36963 4.13933ZM7.48018 10.1323H0.110545V31.6934H7.48018V10.1323ZM19.1242 10.1323H11.7914V31.6934H19.0505V20.379C19.0505 14.076 27.8388 13.4905 27.8388 20.379V31.6934H35.1163V18.0369C35.1163 7.41138 22.1089 7.80747 19.0505 13.0255L19.1242 10.1323Z" fill="white"/>
</svg>
