<svg width="49" height="50" viewBox="0 0 49 50" fill="none" xmlns="http://www.w3.org/2000/svg">
<path d="M2.88981 17.2138C2.76692 17.1707 2.87903 16.5584 2.89843 16.4484C3.07307 15.4394 3.18519 11.5822 3.06014 0.843011C2.58365 0.463548 1.71477 -0.155234 1.1197 0.168172C0.731616 0.379463 0.578537 0.838699 0.528948 1.01118C-0.661185 5.13999 0.528948 34.6799 0.528948 34.6799C0.585005 36.077 0.604409 37.196 0.613033 37.8018C0.813545 38.7763 1.23613 40.2446 2.21713 41.7668C2.98899 42.9655 4.15972 44.2829 6.52058 45.7317C9.11213 47.325 12.122 48.4548 16.2249 49.1922C24.047 50.5979 30.0688 49.5436 34.9566 48.6855C37.2614 48.2823 39.7408 47.7217 42.466 46.2384C46.5194 44.0328 47.6923 41.6482 47.951 41.0919C48.4232 40.07 48.6194 39.1364 48.7099 38.4767C48.766 25.9048 48.822 13.3308 48.8781 0.758925C48.3714 0.506669 47.8648 0.252256 47.3602 0C47.0217 0.252256 46.6854 0.506669 46.3469 0.758925C46.2909 6.18783 46.2348 11.6167 46.1787 17.0456C45.1568 15.4739 43.3004 13.0634 40.2712 11.054C37.3929 9.14376 34.8207 8.50557 32.4232 7.93206C29.6161 7.26154 23.3398 5.84071 15.8842 7.93206C15.8842 7.93206 10.1449 9.54262 6.51842 12.7422C5.3865 13.7404 4.61033 14.4239 3.90315 15.6119C3.47194 16.332 3.0472 17.2699 2.88981 17.2138Z" fill="#5200FF"/>
<path d="M33.6457 40.5872H15.673C10.6624 40.5872 6.60254 36.5252 6.60254 31.5167C6.60254 26.5061 10.6645 22.4463 15.673 22.4463H33.6457C38.6564 22.4463 42.7162 26.5083 42.7162 31.5167C42.7162 36.5274 38.6564 40.5872 33.6457 40.5872Z" fill="white"/>
<path d="M33.7384 35.0833C35.7079 35.0833 37.3045 33.4868 37.3045 31.5173C37.3045 29.5478 35.7079 27.9512 33.7384 27.9512C31.769 27.9512 30.1724 29.5478 30.1724 31.5173C30.1724 33.4868 31.769 35.0833 33.7384 35.0833Z" fill="#5200FF"/>
<path d="M15.4401 35.0833C17.4096 35.0833 19.0062 33.4868 19.0062 31.5173C19.0062 29.5478 17.4096 27.9512 15.4401 27.9512C13.4706 27.9512 11.874 29.5478 11.874 31.5173C11.874 33.4868 13.4706 35.0833 15.4401 35.0833Z" fill="#5200FF"/>
<path d="M15.6449 32.5691C16.226 32.5691 16.6971 32.0981 16.6971 31.517C16.6971 30.9359 16.226 30.4648 15.6449 30.4648C15.0638 30.4648 14.5928 30.9359 14.5928 31.517C14.5928 32.0981 15.0638 32.5691 15.6449 32.5691Z" fill="white"/>
<path d="M33.7382 32.7718C34.4312 32.7718 34.993 32.21 34.993 31.517C34.993 30.824 34.4312 30.2622 33.7382 30.2622C33.0452 30.2622 32.4834 30.824 32.4834 31.517C32.4834 32.21 33.0452 32.7718 33.7382 32.7718Z" fill="white"/>
</svg>
