<svg width="628" height="604" viewBox="0 0 628 604" fill="none" xmlns="http://www.w3.org/2000/svg">
<path d="M53.8898 55.2138C53.7669 55.1707 53.879 54.5584 53.8984 54.4484C54.0731 53.4394 54.1852 49.5822 54.0601 38.843C53.5837 38.4635 52.7148 37.8448 52.1197 38.1682C51.7316 38.3795 51.5785 38.8387 51.5289 39.0112C50.3388 43.14 51.5289 72.6799 51.5289 72.6799C51.585 74.077 51.6044 75.196 51.613 75.8018C51.8135 76.7763 52.2361 78.2446 53.2171 79.7668C53.989 80.9655 55.1597 82.2829 57.5206 83.7317C60.1121 85.325 63.122 86.4548 67.2249 87.1922C75.047 88.5979 81.0688 87.5436 85.9566 86.6855C88.2614 86.2823 90.7408 85.7217 93.466 84.2384C97.5194 82.0328 98.6923 79.6482 98.951 79.0919C99.4232 78.07 99.6194 77.1364 99.7099 76.4767C99.766 63.9048 99.822 51.3308 99.8781 38.7589C99.3714 38.5067 98.8648 38.2523 98.3602 38C98.0217 38.2523 97.6854 38.5067 97.3469 38.7589C97.2909 44.1878 97.2348 49.6167 97.1787 55.0456C96.1568 53.4739 94.3004 51.0634 91.2712 49.054C88.3929 47.1438 85.8207 46.5056 83.4232 45.9321C80.6161 45.2615 74.3398 43.8407 66.8842 45.9321C66.8842 45.9321 61.1449 47.5426 57.5184 50.7422C56.3865 51.7404 55.6103 52.4239 54.9031 53.6119C54.4719 54.332 54.0472 55.2699 53.8898 55.2138Z" fill="#5200FF"/>
<path d="M84.6457 78.5872H66.673C61.6624 78.5872 57.6025 74.5252 57.6025 69.5167C57.6025 64.5061 61.6645 60.4463 66.673 60.4463H84.6457C89.6564 60.4463 93.7162 64.5083 93.7162 69.5167C93.7162 74.5274 89.6564 78.5872 84.6457 78.5872Z" fill="white"/>
<path d="M84.7384 73.0833C86.7079 73.0833 88.3045 71.4868 88.3045 69.5173C88.3045 67.5478 86.7079 65.9512 84.7384 65.9512C82.769 65.9512 81.1724 67.5478 81.1724 69.5173C81.1724 71.4868 82.769 73.0833 84.7384 73.0833Z" fill="#5200FF"/>
<path d="M66.4401 73.0833C68.4096 73.0833 70.0062 71.4868 70.0062 69.5173C70.0062 67.5478 68.4096 65.9512 66.4401 65.9512C64.4706 65.9512 62.874 67.5478 62.874 69.5173C62.874 71.4868 64.4706 73.0833 66.4401 73.0833Z" fill="#5200FF"/>
<path d="M66.6449 70.5691C67.226 70.5691 67.6971 70.0981 67.6971 69.517C67.6971 68.9359 67.226 68.4648 66.6449 68.4648C66.0638 68.4648 65.5928 68.9359 65.5928 69.517C65.5928 70.0981 66.0638 70.5691 66.6449 70.5691Z" fill="white"/>
<path d="M84.7382 70.7718C85.4312 70.7718 85.993 70.21 85.993 69.517C85.993 68.824 85.4312 68.2622 84.7382 68.2622C84.0452 68.2622 83.4834 68.824 83.4834 69.517C83.4834 70.21 84.0452 70.7718 84.7382 70.7718Z" fill="white"/>
<path d="M581.89 354.214C581.767 354.171 581.879 353.558 581.898 353.448C582.073 352.439 582.185 348.582 582.06 337.843C581.584 337.464 580.715 336.845 580.12 337.168C579.732 337.379 579.579 337.839 579.529 338.011C578.339 342.14 579.529 371.68 579.529 371.68C579.585 373.077 579.604 374.196 579.613 374.802C579.814 375.776 580.236 377.245 581.217 378.767C581.989 379.966 583.16 381.283 585.521 382.732C588.112 384.325 591.122 385.455 595.225 386.192C603.047 387.598 609.069 386.544 613.957 385.685C616.261 385.282 618.741 384.722 621.466 383.238C625.519 381.033 626.692 378.648 626.951 378.092C627.423 377.07 627.619 376.136 627.71 375.477C627.766 362.905 627.822 350.331 627.878 337.759C627.371 337.507 626.865 337.252 626.36 337C626.022 337.252 625.685 337.507 625.347 337.759C625.291 343.188 625.235 348.617 625.179 354.046C624.157 352.474 622.3 350.063 619.271 348.054C616.393 346.144 613.821 345.506 611.423 344.932C608.616 344.262 602.34 342.841 594.884 344.932C594.884 344.932 589.145 346.543 585.518 349.742C584.387 350.74 583.61 351.424 582.903 352.612C582.472 353.332 582.047 354.27 581.89 354.214Z" fill="#5200FF"/>
<path d="M612.646 377.587H594.673C589.662 377.587 585.603 373.525 585.603 368.517C585.603 363.506 589.665 359.446 594.673 359.446H612.646C617.656 359.446 621.716 363.508 621.716 368.517C621.716 373.527 617.656 377.587 612.646 377.587Z" fill="white"/>
<path d="M612.738 372.083C614.708 372.083 616.305 370.487 616.305 368.517C616.305 366.548 614.708 364.951 612.738 364.951C610.769 364.951 609.172 366.548 609.172 368.517C609.172 370.487 610.769 372.083 612.738 372.083Z" fill="#5200FF"/>
<path d="M594.44 372.083C596.41 372.083 598.006 370.487 598.006 368.517C598.006 366.548 596.41 364.951 594.44 364.951C592.471 364.951 590.874 366.548 590.874 368.517C590.874 370.487 592.471 372.083 594.44 372.083Z" fill="#5200FF"/>
<path d="M594.645 369.569C595.226 369.569 595.697 369.098 595.697 368.517C595.697 367.936 595.226 367.465 594.645 367.465C594.064 367.465 593.593 367.936 593.593 368.517C593.593 369.098 594.064 369.569 594.645 369.569Z" fill="white"/>
<path d="M612.738 369.772C613.431 369.772 613.993 369.21 613.993 368.517C613.993 367.824 613.431 367.262 612.738 367.262C612.045 367.262 611.483 367.824 611.483 368.517C611.483 369.21 612.045 369.772 612.738 369.772Z" fill="white"/>
<path d="M77.4043 367.442C77.444 367.428 77.4078 367.23 77.4015 367.195C77.3451 366.868 77.3088 365.622 77.3493 362.15C77.5033 362.028 77.7841 361.828 77.9765 361.932C78.1019 362.001 78.1514 362.149 78.1674 362.205C78.5521 363.539 78.1674 373.087 78.1674 373.087C78.1493 373.539 78.143 373.901 78.1402 374.097C78.0754 374.412 77.9388 374.886 77.6217 375.378C77.3723 375.766 76.9938 376.191 76.2307 376.66C75.3931 377.175 74.4202 377.54 73.094 377.778C70.5657 378.233 68.6193 377.892 67.0395 377.614C66.2945 377.484 65.4931 377.303 64.6122 376.823C63.302 376.111 62.9229 375.34 62.8393 375.16C62.6867 374.83 62.6233 374.528 62.594 374.315C62.5759 370.251 62.5578 366.187 62.5396 362.123C62.7034 362.042 62.8672 361.959 63.0302 361.878C63.1397 361.959 63.2484 362.042 63.3578 362.123C63.3759 363.878 63.394 365.633 63.4121 367.388C63.7425 366.88 64.3425 366.1 65.3216 365.451C66.252 364.833 67.0834 364.627 67.8583 364.442C68.7657 364.225 70.7943 363.766 73.2042 364.442C73.2042 364.442 75.0593 364.962 76.2314 365.997C76.5973 366.319 76.8482 366.54 77.0768 366.924C77.2162 367.157 77.3534 367.46 77.4043 367.442Z" fill="#5200FF"/>
<path d="M67.463 374.997H73.2723C74.8919 374.997 76.2041 373.684 76.2041 372.065C76.2041 370.446 74.8912 369.133 73.2723 369.133H67.463C65.8434 369.133 64.5312 370.446 64.5312 372.065C64.5312 373.685 65.8434 374.997 67.463 374.997Z" fill="white"/>
<path d="M67.4333 373.218C66.7967 373.218 66.2806 372.702 66.2806 372.065C66.2806 371.429 66.7967 370.913 67.4333 370.913C68.0699 370.913 68.5859 371.429 68.5859 372.065C68.5859 372.702 68.0699 373.218 67.4333 373.218Z" fill="#5200FF"/>
<path d="M73.3478 373.218C72.7112 373.218 72.1952 372.702 72.1952 372.065C72.1952 371.429 72.7112 370.913 73.3478 370.913C73.9844 370.913 74.5005 371.429 74.5005 372.065C74.5005 372.702 73.9844 373.218 73.3478 373.218Z" fill="#5200FF"/>
<path d="M73.2815 372.405C73.0937 372.405 72.9414 372.253 72.9414 372.065C72.9414 371.877 73.0937 371.725 73.2815 371.725C73.4693 371.725 73.6216 371.877 73.6216 372.065C73.6216 372.253 73.4693 372.405 73.2815 372.405Z" fill="white"/>
<path d="M67.4333 372.471C67.2093 372.471 67.0277 372.289 67.0277 372.065C67.0277 371.841 67.2093 371.66 67.4333 371.66C67.6573 371.66 67.8389 371.841 67.8389 372.065C67.8389 372.289 67.6573 372.471 67.4333 372.471Z" fill="white"/>
<path d="M223.865 78.564C223.904 78.55 223.868 78.3521 223.862 78.3166C223.806 77.9904 223.769 76.7437 223.81 73.2725C223.964 73.1498 224.245 72.9498 224.437 73.0544C224.562 73.1227 224.612 73.2711 224.628 73.3268C225.013 74.6614 224.628 84.2095 224.628 84.2095C224.61 84.6611 224.603 85.0228 224.601 85.2186C224.536 85.5336 224.399 86.0082 224.082 86.5002C223.833 86.8876 223.454 87.3134 222.691 87.7817C221.854 88.2967 220.881 88.6619 219.554 88.9003C217.026 89.3546 215.08 89.0138 213.5 88.7365C212.755 88.6062 211.954 88.425 211.073 87.9455C209.762 87.2326 209.383 86.4618 209.3 86.282C209.147 85.9517 209.084 85.65 209.054 85.4367C209.036 81.3731 209.018 77.3089 209 73.2453C209.164 73.1638 209.328 73.0815 209.491 73C209.6 73.0815 209.709 73.1638 209.818 73.2453C209.836 75.0001 209.854 76.7548 209.873 78.5096C210.203 78.0016 210.803 77.2225 211.782 76.573C212.712 75.9555 213.544 75.7492 214.319 75.5639C215.226 75.3471 217.255 74.8879 219.665 75.5639C219.665 75.5639 221.52 76.0844 222.692 77.1186C223.058 77.4413 223.309 77.6622 223.537 78.0462C223.677 78.2789 223.814 78.5821 223.865 78.564Z" fill="#5200FF"/>
<path d="M213.923 86.119H219.733C221.352 86.119 222.665 84.8061 222.665 83.1872C222.665 81.5676 221.352 80.2554 219.733 80.2554H213.923C212.304 80.2554 210.992 81.5683 210.992 83.1872C210.992 84.8068 212.304 86.119 213.923 86.119Z" fill="white"/>
<path d="M213.894 84.34C213.257 84.34 212.741 83.8239 212.741 83.1873C212.741 82.5507 213.257 82.0347 213.894 82.0347C214.53 82.0347 215.046 82.5507 215.046 83.1873C215.046 83.8239 214.53 84.34 213.894 84.34Z" fill="#5200FF"/>
<path d="M219.808 84.34C219.172 84.34 218.656 83.8239 218.656 83.1873C218.656 82.5507 219.172 82.0347 219.808 82.0347C220.445 82.0347 220.961 82.5507 220.961 83.1873C220.961 83.8239 220.445 84.34 219.808 84.34Z" fill="#5200FF"/>
<path d="M219.742 83.5273C219.554 83.5273 219.402 83.3751 219.402 83.1873C219.402 82.9994 219.554 82.8472 219.742 82.8472C219.93 82.8472 220.082 82.9994 220.082 83.1873C220.082 83.3751 219.93 83.5273 219.742 83.5273Z" fill="white"/>
<path d="M213.894 83.5929C213.67 83.5929 213.488 83.4113 213.488 83.1873C213.488 82.9633 213.67 82.7817 213.894 82.7817C214.118 82.7817 214.299 82.9633 214.299 83.1873C214.299 83.4113 214.118 83.5929 213.894 83.5929Z" fill="white"/>
<path d="M469.245 153.285C469.187 153.264 469.24 152.975 469.249 152.923C469.332 152.445 469.385 150.621 469.326 145.54C469.1 145.361 468.689 145.068 468.408 145.221C468.224 145.321 468.152 145.538 468.128 145.62C467.565 147.573 468.128 161.547 468.128 161.547C468.155 162.208 468.164 162.737 468.168 163.024C468.263 163.485 468.463 164.179 468.927 164.899C469.292 165.467 469.846 166.09 470.963 166.775C472.188 167.529 473.612 168.063 475.553 168.412C479.253 169.077 482.102 168.578 484.414 168.172C485.505 167.982 486.677 167.716 487.967 167.015C489.884 165.971 490.439 164.843 490.561 164.58C490.785 164.097 490.877 163.655 490.92 163.343C490.947 157.396 490.973 151.448 491 145.501C490.76 145.381 490.52 145.261 490.282 145.142C490.122 145.261 489.963 145.381 489.802 145.501C489.776 148.069 489.749 150.637 489.723 153.205C489.239 152.462 488.361 151.321 486.928 150.371C485.567 149.467 484.35 149.165 483.216 148.894C481.888 148.577 478.919 147.905 475.392 148.894C475.392 148.894 472.677 149.656 470.961 151.169C470.426 151.642 470.059 151.965 469.724 152.527C469.52 152.867 469.319 153.311 469.245 153.285Z" fill="#5200FF"/>
<path d="M483.794 164.341H475.292C472.922 164.341 471.001 162.42 471.001 160.051C471.001 157.68 472.923 155.76 475.292 155.76H483.794C486.165 155.76 488.085 157.681 488.085 160.051C488.085 162.421 486.165 164.341 483.794 164.341Z" fill="white"/>
<path d="M483.838 161.738C484.769 161.738 485.525 160.982 485.525 160.051C485.525 159.119 484.769 158.364 483.838 158.364C482.906 158.364 482.151 159.119 482.151 160.051C482.151 160.982 482.906 161.738 483.838 161.738Z" fill="#5200FF"/>
<path d="M475.182 161.738C476.114 161.738 476.869 160.982 476.869 160.051C476.869 159.119 476.114 158.364 475.182 158.364C474.25 158.364 473.495 159.119 473.495 160.051C473.495 160.982 474.25 161.738 475.182 161.738Z" fill="#5200FF"/>
<path d="M475.279 160.549C475.554 160.549 475.777 160.326 475.777 160.051C475.777 159.776 475.554 159.553 475.279 159.553C475.004 159.553 474.781 159.776 474.781 160.051C474.781 160.326 475.004 160.549 475.279 160.549Z" fill="white"/>
<path d="M483.838 160.644C484.166 160.644 484.431 160.378 484.431 160.051C484.431 159.723 484.166 159.457 483.838 159.457C483.51 159.457 483.244 159.723 483.244 160.051C483.244 160.378 483.51 160.644 483.838 160.644Z" fill="white"/>
<path d="M421.784 17.9904C421.66 17.9468 421.773 17.3281 421.793 17.2169C421.969 16.1972 422.083 12.2993 421.956 1.44664C421.475 1.06317 420.597 0.437852 419.995 0.764675C419.603 0.978199 419.448 1.44229 419.398 1.61659C418.196 5.78903 419.398 35.641 419.398 35.641C419.455 37.0529 419.475 38.1837 419.483 38.796C419.686 39.7808 420.113 41.2646 421.104 42.8028C421.884 44.0142 423.067 45.3455 425.453 46.8097C428.072 48.4198 431.114 49.5615 435.26 50.3067C443.165 51.7272 449.25 50.6618 454.19 49.7946C456.519 49.3872 459.024 48.8207 461.779 47.3217C465.875 45.0927 467.06 42.683 467.321 42.1208C467.799 41.0881 467.997 40.1446 468.088 39.4779C468.145 26.7732 468.202 14.0664 468.258 1.36167C467.746 1.10675 467.234 0.849648 466.724 0.594727C466.382 0.849648 466.042 1.10675 465.7 1.36167C465.644 6.84794 465.587 12.3342 465.53 17.8205C464.498 16.2321 462.622 13.7962 459.56 11.7655C456.652 9.8351 454.052 9.19017 451.63 8.6106C448.793 7.93299 442.45 6.49715 434.916 8.6106C434.916 8.6106 429.116 10.2382 425.451 13.4715C424.307 14.4803 423.523 15.171 422.808 16.3716C422.372 17.0993 421.943 18.0471 421.784 17.9904Z" fill="#5200FF"/>
<path d="M452.866 41.6104H434.703C429.639 41.6104 425.537 37.5055 425.537 32.4441C425.537 27.3805 429.642 23.2778 434.703 23.2778H452.866C457.929 23.2778 462.032 27.3827 462.032 32.4441C462.032 37.5077 457.929 41.6104 452.866 41.6104Z" fill="white"/>
<path d="M452.958 36.0484C454.949 36.0484 456.562 34.4349 456.562 32.4446C456.562 30.4543 454.949 28.8408 452.958 28.8408C450.968 28.8408 449.354 30.4543 449.354 32.4446C449.354 34.4349 450.968 36.0484 452.958 36.0484Z" fill="#5200FF"/>
<path d="M434.468 36.0484C436.458 36.0484 438.071 34.4349 438.071 32.4446C438.071 30.4543 436.458 28.8408 434.468 28.8408C432.477 28.8408 430.864 30.4543 430.864 32.4446C430.864 34.4349 432.477 36.0484 434.468 36.0484Z" fill="#5200FF"/>
<path d="M434.675 33.5084C435.262 33.5084 435.738 33.0323 435.738 32.4451C435.738 31.8579 435.262 31.3818 434.675 31.3818C434.087 31.3818 433.611 31.8579 433.611 32.4451C433.611 33.0323 434.087 33.5084 434.675 33.5084Z" fill="white"/>
<path d="M452.958 33.7124C453.658 33.7124 454.226 33.1447 454.226 32.4443C454.226 31.744 453.658 31.1763 452.958 31.1763C452.258 31.1763 451.69 31.744 451.69 32.4443C451.69 33.1447 452.258 33.7124 452.958 33.7124Z" fill="white"/>
<path d="M249.92 395.396C249.796 395.352 249.909 394.733 249.929 394.622C250.106 393.603 250.219 389.705 250.092 378.852C249.611 378.468 248.733 377.843 248.132 378.17C247.739 378.383 247.585 378.848 247.535 379.022C246.332 383.194 247.535 413.046 247.535 413.046C247.591 414.458 247.611 415.589 247.62 416.201C247.822 417.186 248.249 418.67 249.241 420.208C250.021 421.42 251.204 422.751 253.589 424.215C256.208 425.825 259.25 426.967 263.396 427.712C271.301 429.133 277.387 428.067 282.326 427.2C284.655 426.792 287.161 426.226 289.915 424.727C294.011 422.498 295.196 420.088 295.458 419.526C295.935 418.493 296.133 417.55 296.225 416.883C296.281 404.179 296.338 391.472 296.395 378.767C295.883 378.512 295.371 378.255 294.861 378C294.519 378.255 294.179 378.512 293.837 378.767C293.78 384.253 293.723 389.739 293.667 395.226C292.634 393.637 290.758 391.201 287.697 389.171C284.788 387.24 282.189 386.595 279.766 386.016C276.929 385.338 270.586 383.902 263.052 386.016C263.052 386.016 257.252 387.643 253.587 390.877C252.443 391.886 251.659 392.576 250.944 393.777C250.509 394.505 250.079 395.452 249.92 395.396Z" fill="#5200FF"/>
<path d="M281.002 419.016H262.839C257.776 419.016 253.673 414.911 253.673 409.849C253.673 404.786 257.778 400.683 262.839 400.683H281.002C286.065 400.683 290.168 404.788 290.168 409.849C290.168 414.913 286.065 419.016 281.002 419.016Z" fill="white"/>
<path d="M281.094 413.454C283.085 413.454 284.698 411.84 284.698 409.85C284.698 407.86 283.085 406.246 281.094 406.246C279.104 406.246 277.491 407.86 277.491 409.85C277.491 411.84 279.104 413.454 281.094 413.454Z" fill="#5200FF"/>
<path d="M262.604 413.454C264.594 413.454 266.208 411.84 266.208 409.85C266.208 407.86 264.594 406.246 262.604 406.246C260.613 406.246 259 407.86 259 409.85C259 411.84 260.613 413.454 262.604 413.454Z" fill="#5200FF"/>
<path d="M262.811 410.914C263.398 410.914 263.874 410.438 263.874 409.85C263.874 409.263 263.398 408.787 262.811 408.787C262.224 408.787 261.748 409.263 261.748 409.85C261.748 410.438 262.224 410.914 262.811 410.914Z" fill="white"/>
<path d="M281.094 411.118C281.795 411.118 282.362 410.55 282.362 409.85C282.362 409.149 281.795 408.582 281.094 408.582C280.394 408.582 279.826 409.149 279.826 409.85C279.826 410.55 280.394 411.118 281.094 411.118Z" fill="white"/>
<path d="M2.92034 226.396C2.79615 226.352 2.90945 225.733 2.92906 225.622C3.10554 224.603 3.21884 220.705 3.09247 209.852C2.61095 209.468 1.73289 208.843 1.13153 209.17C0.739346 209.383 0.58465 209.848 0.534537 210.022C-0.668171 214.194 0.534537 244.046 0.534537 244.046C0.591186 245.458 0.610795 246.589 0.619511 247.201C0.822141 248.186 1.24919 249.67 2.24055 251.208C3.02057 252.42 4.20367 253.751 6.58948 255.215C9.20842 256.825 12.25 257.967 16.3963 258.712C24.3011 260.133 30.3865 259.067 35.3259 258.2C37.6551 257.792 40.1607 257.226 42.9147 255.727C47.0109 253.498 48.1962 251.088 48.4577 250.526C48.9348 249.493 49.1331 248.55 49.2246 247.883C49.2813 235.179 49.3379 222.472 49.3946 209.767C48.8825 209.512 48.3705 209.255 47.8607 209C47.5186 209.255 47.1787 209.512 46.8366 209.767C46.78 215.253 46.7233 220.739 46.6667 226.226C45.6339 224.637 43.7579 222.201 40.6967 220.171C37.788 218.24 35.1887 217.595 32.7658 217.016C29.929 216.338 23.5864 214.902 16.0521 217.016C16.0521 217.016 10.2521 218.643 6.5873 221.877C5.44342 222.886 4.65904 223.576 3.94439 224.777C3.50863 225.505 3.0794 226.452 2.92034 226.396Z" fill="#5200FF"/>
<path d="M34.0018 250.016H15.8391C10.7756 250.016 6.67285 245.911 6.67285 240.849C6.67285 235.786 10.7777 231.683 15.8391 231.683H34.0018C39.0654 231.683 43.1681 235.788 43.1681 240.849C43.1681 245.913 39.0654 250.016 34.0018 250.016Z" fill="white"/>
<path d="M34.0945 244.454C36.0848 244.454 37.6983 242.84 37.6983 240.85C37.6983 238.86 36.0848 237.246 34.0945 237.246C32.1042 237.246 30.4907 238.86 30.4907 240.85C30.4907 242.84 32.1042 244.454 34.0945 244.454Z" fill="#5200FF"/>
<path d="M15.6038 244.454C17.5941 244.454 19.2075 242.84 19.2075 240.85C19.2075 238.86 17.5941 237.246 15.6038 237.246C13.6135 237.246 12 238.86 12 240.85C12 242.84 13.6135 244.454 15.6038 244.454Z" fill="#5200FF"/>
<path d="M15.8108 241.914C16.398 241.914 16.8741 241.438 16.8741 240.85C16.8741 240.263 16.398 239.787 15.8108 239.787C15.2236 239.787 14.7476 240.263 14.7476 240.85C14.7476 241.438 15.2236 241.914 15.8108 241.914Z" fill="white"/>
<path d="M34.0942 242.118C34.7946 242.118 35.3623 241.55 35.3623 240.85C35.3623 240.149 34.7946 239.582 34.0942 239.582C33.3939 239.582 32.8262 240.149 32.8262 240.85C32.8262 241.55 33.3939 242.118 34.0942 242.118Z" fill="white"/>
<path d="M120.455 562.38C120.362 562.347 120.446 561.886 120.461 561.803C120.593 561.043 120.677 558.135 120.583 550.041C120.224 549.755 119.569 549.288 119.12 549.532C118.828 549.691 118.712 550.037 118.675 550.167C117.778 553.279 118.675 575.545 118.675 575.545C118.717 576.598 118.732 577.441 118.738 577.898C118.89 578.632 119.208 579.739 119.947 580.886C120.529 581.79 121.412 582.783 123.191 583.875C125.145 585.076 127.413 585.927 130.506 586.483C136.401 587.543 140.94 586.748 144.624 586.101C146.362 585.797 148.23 585.375 150.285 584.257C153.34 582.594 154.224 580.797 154.419 580.378C154.775 579.607 154.923 578.904 154.991 578.407C155.033 568.931 155.075 559.453 155.118 549.977C154.736 549.787 154.354 549.595 153.974 549.405C153.718 549.595 153.465 549.787 153.21 549.977C153.167 554.069 153.125 558.161 153.083 562.253C152.313 561.069 150.914 559.252 148.63 557.737C146.461 556.297 144.522 555.816 142.715 555.384C140.599 554.879 135.868 553.808 130.249 555.384C130.249 555.384 125.923 556.598 123.19 559.01C122.336 559.762 121.751 560.277 121.218 561.173C120.893 561.715 120.573 562.422 120.455 562.38Z" fill="#5200FF"/>
<path d="M143.637 579.997H130.09C126.313 579.997 123.253 576.936 123.253 573.16C123.253 569.384 126.315 566.324 130.09 566.324H143.637C147.414 566.324 150.474 569.385 150.474 573.16C150.474 576.937 147.414 579.997 143.637 579.997Z" fill="white"/>
<path d="M143.706 575.848C145.19 575.848 146.394 574.645 146.394 573.161C146.394 571.676 145.19 570.473 143.706 570.473C142.221 570.473 141.018 571.676 141.018 573.161C141.018 574.645 142.221 575.848 143.706 575.848Z" fill="#5200FF"/>
<path d="M129.914 575.848C131.399 575.848 132.602 574.645 132.602 573.161C132.602 571.676 131.399 570.473 129.914 570.473C128.43 570.473 127.227 571.676 127.227 573.161C127.227 574.645 128.43 575.848 129.914 575.848Z" fill="#5200FF"/>
<path d="M130.069 573.954C130.507 573.954 130.862 573.599 130.862 573.161C130.862 572.723 130.507 572.368 130.069 572.368C129.631 572.368 129.276 572.723 129.276 573.161C129.276 573.599 129.631 573.954 130.069 573.954Z" fill="white"/>
<path d="M143.706 574.106C144.228 574.106 144.651 573.683 144.651 573.161C144.651 572.638 144.228 572.215 143.706 572.215C143.183 572.215 142.76 572.638 142.76 573.161C142.76 573.683 143.183 574.106 143.706 574.106Z" fill="white"/>
<path d="M481.758 547.654C481.549 547.581 481.74 546.539 481.773 546.352C482.07 544.635 482.26 538.073 482.048 519.801C481.237 519.156 479.759 518.103 478.746 518.653C478.086 519.013 477.826 519.794 477.741 520.088C475.716 527.112 477.741 577.37 477.741 577.37C477.837 579.747 477.87 581.651 477.884 582.681C478.225 584.339 478.944 586.837 480.613 589.427C481.927 591.467 483.918 593.708 487.935 596.173C492.344 598.884 497.465 600.806 504.446 602.06C517.754 604.452 527.999 602.658 536.315 601.198C540.236 600.512 544.454 599.559 549.091 597.035C555.987 593.282 557.983 589.225 558.423 588.279C559.226 586.54 559.56 584.952 559.714 583.829C559.809 562.44 559.905 541.048 560 519.658C559.138 519.229 558.276 518.796 557.418 518.367C556.842 518.796 556.27 519.229 555.694 519.658C555.598 528.895 555.503 538.131 555.408 547.368C553.669 544.694 550.51 540.593 545.357 537.174C540.46 533.924 536.084 532.838 532.005 531.862C527.229 530.722 516.551 528.304 503.866 531.862C503.866 531.862 494.101 534.603 487.931 540.046C486.006 541.744 484.685 542.907 483.482 544.928C482.748 546.154 482.026 547.749 481.758 547.654Z" fill="#5200FF"/>
<path d="M534.086 587.42H503.508C494.983 587.42 488.076 580.509 488.076 571.988C488.076 563.463 494.987 556.556 503.508 556.556H534.086C542.61 556.556 549.518 563.467 549.518 571.988C549.518 580.513 542.61 587.42 534.086 587.42Z" fill="white"/>
<path d="M534.241 578.055C537.592 578.055 540.309 575.339 540.309 571.988C540.309 568.637 537.592 565.921 534.241 565.921C530.891 565.921 528.174 568.637 528.174 571.988C528.174 575.339 530.891 578.055 534.241 578.055Z" fill="#5200FF"/>
<path d="M503.111 578.055C506.462 578.055 509.178 575.339 509.178 571.988C509.178 568.637 506.462 565.921 503.111 565.921C499.76 565.921 497.044 568.637 497.044 571.988C497.044 575.339 499.76 578.055 503.111 578.055Z" fill="#5200FF"/>
<path d="M503.46 573.78C504.448 573.78 505.25 572.978 505.25 571.99C505.25 571.001 504.448 570.2 503.46 570.2C502.471 570.2 501.669 571.001 501.669 571.99C501.669 572.978 502.471 573.78 503.46 573.78Z" fill="white"/>
<path d="M534.241 574.123C535.42 574.123 536.376 573.167 536.376 571.988C536.376 570.809 535.42 569.854 534.241 569.854C533.062 569.854 532.106 570.809 532.106 571.988C532.106 573.167 533.062 574.123 534.241 574.123Z" fill="white"/>
<path d="M253.834 216.597C253.551 216.498 253.81 215.084 253.854 214.83C254.258 212.501 254.516 203.597 254.228 178.806C253.128 177.93 251.122 176.502 249.748 177.249C248.852 177.736 248.499 178.796 248.385 179.195C245.637 188.726 248.385 256.916 248.385 256.916C248.514 260.142 248.559 262.725 248.579 264.123C249.042 266.373 250.017 269.762 252.282 273.276C254.063 276.043 256.766 279.084 262.216 282.429C268.198 286.107 275.146 288.715 284.618 290.417C302.674 293.662 316.575 291.228 327.858 289.247C333.179 288.317 338.902 287.023 345.193 283.598C354.55 278.507 357.258 273.002 357.855 271.718C358.945 269.359 359.398 267.204 359.607 265.681C359.736 236.66 359.866 207.634 359.995 178.612C358.826 178.03 357.656 177.443 356.491 176.86C355.71 177.443 354.934 178.03 354.152 178.612C354.023 191.145 353.893 203.677 353.764 216.209C351.405 212.581 347.12 207.016 340.127 202.378C333.482 197.968 327.545 196.495 322.01 195.171C315.53 193.623 301.042 190.343 283.831 195.171C283.831 195.171 270.582 198.889 262.211 206.275C259.598 208.579 257.806 210.157 256.174 212.899C255.178 214.562 254.198 216.727 253.834 216.597Z" fill="#5200FF"/>
<path d="M324.834 270.552H283.345C271.779 270.552 262.407 261.176 262.407 249.614C262.407 238.047 271.784 228.675 283.345 228.675H324.834C336.401 228.675 345.773 238.052 345.773 249.614C345.773 261.18 336.401 270.552 324.834 270.552Z" fill="white"/>
<path d="M325.046 257.846C329.592 257.846 333.278 254.161 333.278 249.614C333.278 245.068 329.592 241.382 325.046 241.382C320.499 241.382 316.813 245.068 316.813 249.614C316.813 254.161 320.499 257.846 325.046 257.846Z" fill="#5200FF"/>
<path d="M282.807 257.846C287.354 257.846 291.039 254.161 291.039 249.614C291.039 245.068 287.354 241.382 282.807 241.382C278.261 241.382 274.575 245.068 274.575 249.614C274.575 254.161 278.261 257.846 282.807 257.846Z" fill="#5200FF"/>
<path d="M283.28 252.046C284.621 252.046 285.709 250.958 285.709 249.617C285.709 248.275 284.621 247.188 283.28 247.188C281.938 247.188 280.851 248.275 280.851 249.617C280.851 250.958 281.938 252.046 283.28 252.046Z" fill="white"/>
<path d="M325.045 252.512C326.644 252.512 327.941 251.215 327.941 249.615C327.941 248.015 326.644 246.718 325.045 246.718C323.445 246.718 322.148 248.015 322.148 249.615C322.148 251.215 323.445 252.512 325.045 252.512Z" fill="white"/>
</svg>
