<svg width="21" height="21" viewBox="0 0 21 21" fill="none" xmlns="http://www.w3.org/2000/svg">
<path d="M0 21C0 16.5817 3.58172 13 8 13C12.4183 13 16 16.5817 16 21H14C14 17.6863 11.3137 15 8 15C4.68629 15 2 17.6863 2 21H0ZM8 12C4.685 12 2 9.315 2 6C2 2.685 4.685 0 8 0C11.315 0 14 2.685 14 6C14 9.315 11.315 12 8 12ZM8 10C10.21 10 12 8.21 12 6C12 3.79 10.21 2 8 2C5.79 2 4 3.79 4 6C4 8.21 5.79 10 8 10ZM16.2837 13.7028C19.0644 14.9561 21 17.752 21 21H19C19 18.564 17.5483 16.4671 15.4628 15.5271L16.2837 13.7028ZM15.5962 2.41321C17.5944 3.23703 19 5.20361 19 7.5C19 10.3702 16.8042 12.7252 14 12.9776V10.9646C15.6967 10.7222 17 9.264 17 7.5C17 6.11935 16.2016 4.92603 15.041 4.35635L15.5962 2.41321Z" fill="black" fill-opacity="0.79"/>
</svg>
