<svg width="20" height="20" viewBox="0 0 20 20" fill="none" xmlns="http://www.w3.org/2000/svg">
<path d="M10 20C4.47716 20 0 15.5229 0 9.99997C0 4.47715 4.47716 0 10 0C15.5228 0 20 4.47715 20 9.99997C20 15.5229 15.5228 20 10 20ZM10 18C14.4183 18 18 14.4183 18 9.99997C18 5.58172 14.4183 2 10 2C5.58172 2 2 5.58172 2 9.99997C2 14.4183 5.58172 18 10 18ZM6.5 12H12C12.2761 12 12.5 11.7762 12.5 11.5C12.5 11.2239 12.2761 11 12 11H8.00002C6.61929 11 5.5 9.88067 5.5 8.49997C5.5 7.11929 6.61929 6 8.00002 6H9.00002V4H11V6H13.5V7.99997H8.00002C7.72386 7.99997 7.5 8.22387 7.5 8.49997C7.5 8.77617 7.72386 8.99997 8.00002 8.99997H12C13.3807 8.99997 14.5 10.1193 14.5 11.5C14.5 12.8807 13.3807 14 12 14H11V16H9.00002V14H6.5V12Z" fill="#D2D2D2"/>
</svg>
