<svg width="19" height="18" viewBox="0 0 19 18" fill="none" xmlns="http://www.w3.org/2000/svg">
<path d="M19 0V14C19 16.2091 17.2091 18 15 18C12.7909 18 11 16.2091 11 14C11 11.7909 12.7909 10 15 10C15.7286 10 16.4117 10.1948 17 10.5351V2H8V14C8 16.2091 6.20914 18 4 18C1.79086 18 0 16.2091 0 14C0 11.7909 1.79086 10 4 10C4.72857 10 5.41165 10.1948 6 10.5351V0H19ZM4 16C5.10457 16 6 15.1046 6 14C6 12.8954 5.10457 12 4 12C2.89543 12 2 12.8954 2 14C2 15.1046 2.89543 16 4 16ZM15 16C16.1046 16 17 15.1046 17 14C17 12.8954 16.1046 12 15 12C13.8954 12 13 12.8954 13 14C13 15.1046 13.8954 16 15 16Z" fill="black"/>
</svg>
