<svg width="268" height="146" viewBox="0 0 268 146" fill="none" xmlns="http://www.w3.org/2000/svg">
<path d="M4.2 11.025L1.4 3.675L3.26898 2.96301L2.90211 2H3.625V0H10.875V2H18.125V0H25.375V2H32.625V0H39.875V2H47.125V0H54.375V2H56.6304L57.5603 4.39806L59.425 3.675L62.275 11.025L60.4103 11.7481L63.2603 19.0981L65.125 18.375L67.975 25.725L66.1103 26.4481L68.9603 33.7981L70.825 33.075L73.675 40.425L71.8103 41.1481L74.6603 48.4981L76.525 47.775L79.375 55.125L77.5103 55.8481L80.3603 63.1981L82.225 62.475L85.075 69.825L83.2103 70.5481L84.353 73.495L83.2137 76.3933L85.075 77.125L82.225 84.375L80.3637 83.6433L77.5137 90.8933L79.375 91.625L76.525 98.875L74.6637 98.1433L71.8137 105.393L73.675 106.125L70.825 113.375L68.9637 112.643L66.1137 119.893L67.975 120.625L65.125 127.875L63.2637 127.143L60.4137 134.393L62.275 135.125L59.425 142.375L57.5637 141.643L56.6372 144H54.375V146H47.125V144H39.875V146H32.625V144H25.375V146H18.125V144H10.875V146H3.625V144H2.91639L3.2657 143.096L1.4 142.375L4.2 135.125L6.0657 135.846L8.86569 128.596L7 127.875L9.8 120.625L11.6657 121.346L14.4657 114.096L12.6 113.375L15.4 106.125L17.2657 106.846L20.0657 99.5955L18.2 98.875L21 91.625L22.8657 92.3455L25.6657 85.0955L23.8 84.375L26.6 77.125L28.4657 77.8455L29.8657 74.2205L30.1421 73.5049L29.869 72.788L28.469 69.113L26.6 69.825L23.8 62.475L25.669 61.763L22.869 54.413L21 55.125L18.2 47.775L20.069 47.063L17.269 39.713L15.4 40.425L12.6 33.075L14.469 32.363L11.669 25.013L9.8 25.725L7 18.375L8.86897 17.663L6.06898 10.313L4.2 11.025Z" stroke="#5200FF" stroke-width="4" stroke-dasharray="8 8"/>
<path d="M147.137 144H93.4164L120.366 74.2205L120.642 73.5049L120.369 72.788L93.4021 2H147.13L174.853 73.495L147.137 144Z" stroke="#5200FF" stroke-width="4"/>
<path d="M181 0H239L267.5 73.5L239 146H181L209 73.5L181 0Z" fill="#5200FF"/>
</svg>
