<svg width="21" height="22" viewBox="0 0 21 22" fill="none" xmlns="http://www.w3.org/2000/svg">
<path d="M16.031 15.4601L20.3137 19.7428L18.8995 21.157L14.6168 16.8743C13.0769 18.1063 11.124 18.8433 9 18.8433C4.032 18.8433 0 14.8113 0 9.84326C0 4.87526 4.032 0.843262 9 0.843262C13.968 0.843262 18 4.87526 18 9.84326C18 11.9673 17.263 13.9202 16.031 15.4601ZM14.0247 14.7181C15.2475 13.4579 16 11.7389 16 9.84326C16 5.97576 12.8675 2.84326 9 2.84326C5.1325 2.84326 2 5.97576 2 9.84326C2 13.7108 5.1325 16.8433 9 16.8433C10.8956 16.8433 12.6146 16.0908 13.8748 14.868L14.0247 14.7181Z" fill="#636363"/>
</svg>
