<svg width="21" height="18" viewBox="0 0 21 18" fill="none" xmlns="http://www.w3.org/2000/svg">
<path d="M6.92492 10.8314C5.88489 10.8314 5.03589 9.88694 5.03589 8.73024C5.03589 7.57344 5.86366 6.62891 6.92492 6.62891C7.97553 6.62891 8.8351 7.57344 8.8139 8.73024C8.8139 9.88694 7.97553 10.8314 6.92492 10.8314ZM13.8984 10.8314C12.8583 10.8314 12.0083 9.88694 12.0083 8.73024C12.0083 7.57344 12.8371 6.62891 13.8984 6.62891C14.949 6.62891 15.8086 7.57344 15.7874 8.73024C15.7874 9.88694 14.9596 10.8314 13.8984 10.8314ZM8.5296 1.30856L8.22085 0.745605L7.58753 0.851156C6.12345 1.09518 4.73088 1.53236 3.42974 2.13164L3.20081 2.23708L3.05937 2.44569C0.4461 6.30001 -0.2699 10.0942 0.0846203 13.8218L0.12327 14.2281L0.45342 14.468C2.19281 15.7321 3.87847 16.5044 5.53157 17.0112L6.32087 17.2532L7.43443 14.5362C9.344 15.0082 11.4635 15.0083 13.3733 14.5366L14.48 17.2539L15.2711 17.0112C16.9216 16.5049 18.618 15.7327 20.3509 14.4667L20.6769 14.2286L20.7174 13.827C21.1534 9.50684 20.0203 5.74333 17.759 2.44212L17.6171 2.23504L17.3889 2.13064C16.081 1.53244 14.6895 1.09541 13.2352 0.851326L12.6175 0.747656L12.303 1.28928C12.2155 1.44004 12.1258 1.61024 12.0407 1.78246C10.9484 1.67029 9.8603 1.67005 8.7769 1.78211C8.6925 1.61295 8.6068 1.4494 8.5296 1.30856ZM5.11866 13.5958C5.31665 13.7098 5.52403 13.8214 5.72987 13.9236L5.2807 15.0196C4.16015 14.6114 3.02267 14.0493 1.8519 13.2413C1.62743 10.1033 2.26522 6.93659 4.41626 3.67186C5.31392 3.27683 6.2578 2.96839 7.24036 2.75855C7.30061 2.88391 7.35665 3.00626 7.40269 3.11476L7.67558 3.75797L8.36689 3.65658C9.7195 3.45819 11.0815 3.45793 12.4566 3.65684L13.1467 3.75666L13.419 3.11476C13.4664 3.00303 13.521 2.88107 13.5786 2.75882C14.5568 2.96885 15.5023 3.27772 16.4072 3.67371C18.2824 6.49417 19.2284 9.63994 18.9529 13.2408C17.788 14.0481 16.6465 14.6104 15.5236 15.0191L15.0778 13.9245C15.2842 13.822 15.4922 13.7101 15.6908 13.5958C16.1806 13.3135 16.7082 12.9615 17.0445 12.6253L15.7649 11.3458C15.6012 11.5095 15.2413 11.7663 14.7874 12.0279C14.3431 12.2839 13.9023 12.4907 13.6207 12.5838C11.6169 13.2464 9.1926 13.2464 7.18873 12.5838C6.90715 12.4907 6.46635 12.2839 6.02202 12.0279C5.56813 11.7663 5.20822 11.5095 5.04447 11.3458L3.76495 12.6253C4.1012 12.9615 4.6288 13.3135 5.11866 13.5958Z" fill="black"/>
</svg>
