<svg width="20" height="18" viewBox="0 0 20 18" fill="none" xmlns="http://www.w3.org/2000/svg">
<path d="M19 0C19.5523 0 20 0.44772 20 1V6.5C18.6193 6.5 17.5 7.6193 17.5 9C17.5 10.3807 18.6193 11.5 20 11.5V17C20 17.5523 19.5523 18 19 18H1C0.44772 18 0 17.5523 0 17V11.5C1.38071 11.5 2.5 10.3807 2.5 9C2.5 7.6193 1.38071 6.5 0 6.5V1C0 0.44772 0.44772 0 1 0H19ZM18 2H2V4.968L2.15589 5.04908C3.49447 5.78105 4.42028 7.1735 4.4951 8.7882L4.5 9C4.5 10.7042 3.55267 12.1871 2.15589 12.9509L2 13.031V16H18V13.031L17.8441 12.9509C16.5055 12.219 15.5797 10.8265 15.5049 9.2118L15.5 9C15.5 7.2958 16.4473 5.81287 17.8441 5.04908L18 4.968V2Z" fill="black"/>
</svg>
