<svg width="16" height="21" viewBox="0 0 16 21" fill="none" xmlns="http://www.w3.org/2000/svg">
<path d="M15.5 20.5H14.5V19C14.5 17.067 12.933 15.5 11 15.5H5C3.06701 15.5 1.5 17.067 1.5 19V20.5H0.5V19C0.5 16.5147 2.51472 14.5 5 14.5H11C13.4853 14.5 15.5 16.5147 15.5 19V20.5ZM8 11.5C4.96243 11.5 2.5 9.03756 2.5 6C2.5 2.96243 4.96243 0.5 8 0.5C11.0376 0.5 13.5 2.96243 13.5 6C13.5 9.03756 11.0376 11.5 8 11.5ZM8 10.5C10.4852 10.5 12.5 8.48529 12.5 6C12.5 3.51471 10.4852 1.5 8 1.5C5.51472 1.5 3.5 3.51472 3.5 6C3.5 8.48528 5.51472 10.5 8 10.5Z" fill="black" stroke="#C6C6C6"/>
</svg>
