<svg width="26" height="26" viewBox="0 0 26 26" fill="none" xmlns="http://www.w3.org/2000/svg">
<path d="M1.2381 26C0.554314 26 -0.00811732 25.4429 0.0763233 24.7644C0.684493 19.8772 4.85296 16.0952 9.90476 16.0952C14.9566 16.0952 19.125 19.8772 19.7332 24.7644C19.8176 25.4429 19.2552 26 18.5714 26V26C17.8876 26 17.3441 25.4415 17.2315 24.7671C16.6442 21.2512 13.5874 18.5714 9.90476 18.5714C6.2221 18.5714 3.16533 21.2512 2.57803 24.7671C2.46538 25.4415 1.92188 26 1.2381 26V26ZM9.90476 14.8571C5.80048 14.8571 2.47619 11.5329 2.47619 7.42857C2.47619 3.32429 5.80048 0 9.90476 0C14.009 0 17.3333 3.32429 17.3333 7.42857C17.3333 11.5329 14.009 14.8571 9.90476 14.8571ZM9.90476 12.381C12.641 12.381 14.8571 10.1648 14.8571 7.42857C14.8571 4.69238 12.641 2.47619 9.90476 2.47619C7.16857 2.47619 4.95238 4.69238 4.95238 7.42857C4.95238 10.1648 7.16857 12.381 9.90476 12.381ZM19.6523 18.0954C19.9331 17.4714 20.672 17.1871 21.2557 17.5441C23.7686 19.081 25.5433 21.7065 25.9237 24.7647C26.0081 25.4433 25.4457 26 24.7619 26V26C24.0781 26 23.5346 25.4417 23.422 24.7672C23.0785 22.7105 21.8899 20.9398 20.2252 19.8243C19.6573 19.4438 19.3717 18.7188 19.6523 18.0954V18.0954ZM18.9161 4.36502C19.1258 3.63084 19.9373 3.2367 20.5666 3.66906C22.3529 4.89622 23.5238 6.9536 23.5238 9.28571C23.5238 12.3586 21.4909 14.9546 18.6959 15.8027C17.9814 16.0195 17.3333 15.4241 17.3333 14.6773V14.6773C17.3333 14.0449 17.8098 13.5273 18.3928 13.2823C19.9528 12.6267 21.0476 11.0847 21.0476 9.28571C21.0476 7.95952 20.4526 6.77294 19.5148 5.97822C19.0425 5.57791 18.746 4.96037 18.9161 4.36502V4.36502Z" fill="white"/>
</svg>
