<svg width="34" height="34" viewBox="0 0 34 34" fill="none" xmlns="http://www.w3.org/2000/svg">
<path fill-rule="evenodd" clip-rule="evenodd" d="M20.0909 3.09091C20.0909 4.23498 19.4693 5.23388 18.5455 5.76832V6.18182H29.3636C31.9243 6.18182 34 8.2576 34 10.8182V29.3636C34 31.9243 31.9243 34 29.3636 34H4.63636C2.07578 34 0 31.9243 0 29.3636V10.8182C0 8.2576 2.07578 6.18182 4.63636 6.18182H15.4545V5.76832C14.5307 5.23388 13.9091 4.23498 13.9091 3.09091C13.9091 1.38385 15.2929 0 17 0C18.7071 0 20.0909 1.38385 20.0909 3.09091ZM4.63636 9.27273H15.4545H18.5455H29.3636C30.2172 9.27273 30.9091 9.96466 30.9091 10.8182V29.3636C30.9091 30.2172 30.2172 30.9091 29.3636 30.9091H4.63636C3.78284 30.9091 3.09091 30.2172 3.09091 29.3636V10.8182C3.09091 9.96466 3.78284 9.27273 4.63636 9.27273ZM21.6364 17.7727C21.6364 16.4925 22.6743 15.4545 23.9545 15.4545C25.2348 15.4545 26.2727 16.4925 26.2727 17.7727C26.2727 19.053 25.2348 20.0909 23.9545 20.0909C22.6743 20.0909 21.6364 19.053 21.6364 17.7727ZM23.9545 12.3636C20.9672 12.3636 18.5455 14.7854 18.5455 17.7727C18.5455 20.7601 20.9672 23.1818 23.9545 23.1818C26.9419 23.1818 29.3636 20.7601 29.3636 17.7727C29.3636 14.7854 26.9419 12.3636 23.9545 12.3636ZM10.0455 15.4545C8.76515 15.4545 7.72727 16.4925 7.72727 17.7727C7.72727 19.053 8.76515 20.0909 10.0455 20.0909C11.3258 20.0909 12.3636 19.053 12.3636 17.7727C12.3636 16.4925 11.3258 15.4545 10.0455 15.4545ZM4.63636 17.7727C4.63636 14.7854 7.05809 12.3636 10.0455 12.3636C13.0328 12.3636 15.4545 14.7854 15.4545 17.7727C15.4545 20.7601 13.0328 23.1818 10.0455 23.1818C7.05809 23.1818 4.63636 20.7601 4.63636 17.7727ZM15.2913 25.5816C14.9096 24.8181 13.9814 24.5087 13.2179 24.8905C12.4545 25.2722 12.1451 26.2004 12.5268 26.9639C13.4153 28.741 15.427 29.3636 17 29.3636C18.573 29.3636 20.5847 28.741 21.4732 26.9639C21.8549 26.2004 21.5455 25.2722 20.782 24.8905C20.0186 24.5087 19.0904 24.8181 18.7087 25.5816C18.5669 25.865 18.0027 26.2727 17 26.2727C15.9973 26.2727 15.4331 25.865 15.2913 25.5816Z" fill="white"/>
</svg>
