<svg width="40" height="40" viewBox="0 0 40 40" fill="none" xmlns="http://www.w3.org/2000/svg">
<path d="M2.313 13.7779C2.21463 13.7434 2.30437 13.2533 2.3199 13.1653C2.45968 12.3576 2.54942 9.27039 2.44933 0.674744C2.06795 0.371023 1.3725 -0.124249 0.896207 0.134604C0.585583 0.303721 0.463059 0.671293 0.423369 0.809348C-0.529211 4.11404 0.423369 27.7577 0.423369 27.7577C0.468236 28.8759 0.483768 29.7716 0.49067 30.2565C0.651159 31.0365 0.989394 32.2117 1.77458 33.43C2.39238 34.3895 3.32943 35.4439 5.21905 36.6035C7.29333 37.8788 9.70239 38.7831 12.9864 39.3733C19.2472 40.4984 24.067 39.6546 27.9791 38.9677C29.8239 38.645 31.8084 38.1964 33.9897 37.0091C37.234 35.2437 38.1728 33.3351 38.3799 32.8899C38.7578 32.0719 38.9148 31.3247 38.9873 30.7966C39.0322 20.7341 39.077 10.6699 39.1219 0.607442C38.7164 0.405537 38.3108 0.201905 37.907 0C37.6361 0.201905 37.3669 0.405537 37.0959 0.607442C37.0511 4.95272 37.0062 9.298 36.9613 13.6433C36.1434 12.3853 34.6575 10.4559 32.233 8.8476C29.9292 7.31864 27.8704 6.80784 25.9515 6.3488C23.7046 5.81211 18.6811 4.67489 12.7137 6.3488C12.7137 6.3488 8.11993 7.63789 5.21733 10.1988C4.31134 10.9978 3.69009 11.5448 3.12407 12.4957C2.77893 13.0721 2.43897 13.8228 2.313 13.7779Z" fill="white"/>
<path d="M26.93 32.4858H12.5446C8.53414 32.4858 5.28467 29.2346 5.28467 25.2258C5.28467 21.2153 8.53586 17.9658 12.5446 17.9658H26.93C30.9405 17.9658 34.1899 21.217 34.1899 25.2258C34.1899 29.2363 30.9405 32.4858 26.93 32.4858Z" fill="#470AFF"/>
<path d="M11.8421 25.6843C12.3072 25.6843 12.6843 25.3072 12.6843 24.8421C12.6843 24.377 12.3072 24 11.8421 24C11.377 24 11 24.377 11 24.8421C11 25.3072 11.377 25.6843 11.8421 25.6843Z" fill="#470AFF"/>
<path d="M27.0043 27.0087C28.1113 27.0087 29.0087 26.1113 29.0087 25.0043C29.0087 23.8974 28.1113 23 27.0043 23C25.8974 23 25 23.8974 25 25.0043C25 26.1113 25.8974 27.0087 27.0043 27.0087Z" stroke="white" stroke-width="2"/>
<path d="M13.0043 27.0087C14.1113 27.0087 15.0087 26.1113 15.0087 25.0043C15.0087 23.8974 14.1113 23 13.0043 23C11.8974 23 11 23.8974 11 25.0043C11 26.1113 11.8974 27.0087 13.0043 27.0087Z" stroke="white" stroke-width="2"/>
</svg>
