<svg width="26" height="26" viewBox="0 0 26 26" fill="none" xmlns="http://www.w3.org/2000/svg">
<path d="M0 1.44445C0 0.646701 0.6467 0 1.44444 0C2.24219 0 2.88889 0.646699 2.88889 1.44444V4.33333C2.88889 5.13108 2.24219 5.77778 1.44444 5.77778C0.6467 5.77778 0 5.13108 0 4.33333V1.44445ZM10.1514 25.0496C9.94369 25.6202 9.40128 26 8.79404 26C7.79146 26 7.0938 25.0036 7.4367 24.0615L15.8485 0.950391C16.0562 0.379784 16.5985 0 17.2058 0C18.2083 0 18.906 0.996335 18.5631 1.93842L10.1514 25.0496ZM26 1.44445C26 0.646701 25.3533 0 24.5556 0C23.7578 0 23.1111 0.6467 23.1111 1.44444V4.33333C23.1111 5.13108 23.7578 5.77778 24.5556 5.77778C25.3533 5.77778 26 5.13108 26 4.33333V1.44445Z" fill="white"/>
</svg>
