<svg width="544" height="1055" viewBox="0 0 544 1055" fill="none" xmlns="http://www.w3.org/2000/svg">
<path d="M-151.725 229.356C-151.725 229.356 -113.573 145.522 -69.9925 151.731C-29.5242 157.496 -15.3125 196.806 -9.70361 237.296C-5.51975 267.499 -37.5376 285.382 -26.079 313.638C-7.8005 358.713 67.6292 285.015 98.1247 322.908C129.412 361.784 60.5007 401.636 76.6112 448.867C108.322 541.831 279.324 368.467 328.082 453.735C365.664 519.459 253.952 576.442 288.901 643.603C309.581 683.345 358.202 677.119 376.041 718.214C413.518 804.547 182.396 803.401 210.39 893.258C220.546 925.858 260.457 930.085 261.479 964.216" stroke="#5200FF" stroke-width="2" stroke-linecap="round"/>
<path d="M-105.725 178.356C-105.725 178.356 -67.5727 94.5218 -23.9925 100.731C16.4758 106.496 30.6875 145.806 36.2964 186.296C40.4803 216.499 8.46237 234.382 19.921 262.638C38.1995 307.713 113.629 234.015 144.125 271.908C175.412 310.784 106.501 350.636 122.611 397.867C154.322 490.831 325.324 317.467 374.082 402.735C411.664 468.459 299.952 525.442 334.901 592.603C355.581 632.345 404.202 626.119 422.041 667.214C459.518 753.547 228.396 752.401 256.39 842.258C266.546 874.858 306.457 879.085 307.479 913.216" stroke="#5200FF" stroke-width="2" stroke-linecap="round"/>
<path d="M-210.725 280.356C-210.725 280.356 -172.573 196.522 -128.993 202.731C-88.5242 208.496 -74.3125 247.806 -68.7036 288.296C-64.5197 318.499 -96.5376 336.382 -85.079 364.638C-66.8005 409.713 8.6292 336.015 39.1247 373.908C70.4121 412.784 1.50068 452.636 17.6112 499.867C49.322 592.831 220.324 419.467 269.082 504.735C306.664 570.459 194.952 627.442 229.901 694.603C250.581 734.345 299.202 728.119 317.041 769.214C354.518 855.547 123.396 854.401 151.39 944.258C161.546 976.858 201.457 981.085 202.479 1015.22" stroke="#5200FF" stroke-width="2" stroke-linecap="round"/>
</svg>
